<?xml version="1.0" encoding="utf-8"?>
<!-- Generator: Adobe Illustrator 22.0.1, SVG Export Plug-In . SVG Version: 6.00 Build 0)  -->
<svg version="1.1" id="Layer_1" xmlns="http://www.w3.org/2000/svg" xmlns:xlink="http://www.w3.org/1999/xlink" x="0px" y="0px"
	 viewBox="0 0 144 144" style="enable-background:new 0 0 144 144;" xml:space="preserve">
<style type="text/css">
	.st0{clip-path:url(#SVGID_2_);fill:#B7B7B7;}
	.st1{clip-path:url(#SVGID_4_);fill:#B7B7B7;}
</style>
<g>
	<defs>
		<rect id="SVGID_1_" width="144" height="144"/>
	</defs>
	<clipPath id="SVGID_2_">
		<use xlink:href="#SVGID_1_"  style="overflow:visible;"/>
	</clipPath>
	<path class="st0" d="M97.9,107.8H56.1c-5.9,0-10.6-4.8-10.6-10.6c0-4.1,2.4-7.9,6.1-9.6c0.3-0.1,1.6-0.6,1.6-2.4
		c0-10.8,10.2-19.5,22.9-19.5c12.6,0,22.9,8.8,22.9,19.5c0,0.6,0.4,1.4,0.5,1.6c5,0.5,9,5.1,9,10.4
		C108.5,103,103.7,107.8,97.9,107.8 M76.1,67.9c-11.3,0-20.6,7.8-20.6,17.3c0,3.4-2.9,4.4-3,4.4c-2.8,1.4-4.7,4.3-4.7,7.6
		c0,4.7,3.8,8.4,8.4,8.4h41.7c4.7,0,8.4-3.8,8.4-8.4c0-4.2-3.1-7.8-7.1-8.3c-1.5-0.2-2.4-2.3-2.4-3.7C96.8,75.7,87.5,67.9,76.1,67.9
		"/>
</g>
<g>
	<defs>
		<polygon id="SVGID_3_" points="14,28 14,95.4 48.3,95.4 50.1,68.5 103.5,68.5 105.4,95.4 125.8,95.4 125.8,28 		"/>
	</defs>
	<clipPath id="SVGID_4_">
		<use xlink:href="#SVGID_3_"  style="overflow:visible;"/>
	</clipPath>
	<path class="st1" d="M36.5,92.6c-6.5,0-11.8-6.4-11.8-14.3c0-5.4,2.6-10.5,6.7-12.8c0.3-0.2,1.9-0.9,1.9-3.5
		c0-14.5,11.4-26.3,25.4-26.3c11.2,0,20.9,7.6,24.4,19c0.2,0.5,2.2,1.7,4.4,1.7c6.4,0,12.4,3.5,15.7,9c0.3,0.5,1.6,1.3,4,1.3
		c6.9,0,12.6,5.6,12.6,12.6c0,7.1-5.8,13.2-12.6,13.2l-24.2,0.1H36.5z M58.6,38.2C46,38.2,35.8,48.9,35.8,62c0,4.4-3.2,5.7-3.3,5.8
		c-3.1,1.8-5.3,6-5.3,10.6c0,6.5,4.2,11.7,9.3,11.7l70.5-0.1c5.3,0,10-5,10-10.6c0-5.5-4.5-10-10-10c-2.9,0-5.2-1-6.1-2.6
		C98,61.9,92.9,59,87.3,59c-2.9,0-6.3-1.7-6.8-3.5C77.4,45.2,68.6,38.2,58.6,38.2"/>
</g>
</svg>
