<?xml version="1.0" encoding="utf-8"?>
<!-- Generator: Adobe Illustrator 22.0.1, SVG Export Plug-In . SVG Version: 6.00 Build 0)  -->
<svg version="1.1" id="Layer_1" xmlns="http://www.w3.org/2000/svg" xmlns:xlink="http://www.w3.org/1999/xlink" x="0px" y="0px"
	 viewBox="0 0 144 144" style="enable-background:new 0 0 144 144;" xml:space="preserve">
<style type="text/css">
	.st0{clip-path:url(#SVGID_2_);}
	.st1{opacity:0.33;clip-path:url(#SVGID_4_);enable-background:new    ;}
	.st2{clip-path:url(#SVGID_6_);fill:#28ABEF;}
	.st3{opacity:7.000730e-02;clip-path:url(#SVGID_4_);enable-background:new    ;}
	.st4{clip-path:url(#SVGID_8_);fill:#28ABEF;}
	.st5{opacity:0.64;clip-path:url(#SVGID_4_);}
	.st6{clip-path:url(#SVGID_10_);fill:#28ABEF;}
	.st7{opacity:0.6;clip-path:url(#SVGID_4_);enable-background:new    ;}
	.st8{clip-path:url(#SVGID_12_);fill:#28ABEF;}
	.st9{clip-path:url(#SVGID_4_);fill:#B7B7B7;}
</style>
<g>
	<defs>
		<rect id="SVGID_1_" width="144" height="144"/>
	</defs>
	<clipPath id="SVGID_2_">
		<use xlink:href="#SVGID_1_"  style="overflow:visible;"/>
	</clipPath>
	<g class="st0">
		<defs>
			<rect id="SVGID_3_" width="144" height="144"/>
		</defs>
		<clipPath id="SVGID_4_">
			<use xlink:href="#SVGID_3_"  style="overflow:visible;"/>
		</clipPath>
		<g class="st1">
			<g>
				<defs>
					<rect id="SVGID_5_" x="29.4" y="87.2" width="87.3" height="11.4"/>
				</defs>
				<clipPath id="SVGID_6_">
					<use xlink:href="#SVGID_5_"  style="overflow:visible;"/>
				</clipPath>
				<path class="st2" d="M101,98.5c-3.6,0-5.9-2.2-8-4.1c-2-1.9-3.8-3.5-6.7-3.5c-2,0-2.8,0.9-4.3,2.8c-1.7,2.2-3.9,4.9-8.8,4.9
					c-4.4,0-6.8-2.3-8.8-4.3c-1.8-1.9-3.3-3.3-6.1-3.3c-2.4,0-3.8,1.4-5.4,3.2c-1.9,2-4.2,4.4-8.3,4.4c-3.4,0-6-2.4-8.3-4.4
					c-1.8-1.7-3.5-3.2-5.1-3.2c-1,0-1.8-0.8-1.8-1.9c0-1.1,0.8-1.9,1.8-1.9c3,0,5.3,2.1,7.6,4.1c2,1.8,3.8,3.5,5.9,3.5
					c2.6,0,4-1.4,5.7-3.3c1.9-2.1,4.1-4.3,8.1-4.3c4.4,0,6.7,2.3,8.7,4.3c1.8,1.9,3.3,3.3,6.3,3.3c3.3,0,4.5-1.5,6-3.4
					s3.3-4.1,7.1-4.1c4.4,0,7.1,2.5,9.2,4.5c1.8,1.8,3.3,3.1,5.5,3.1c2.3,0,3.8-1.5,5.6-3.3c2-2.1,4.3-4.3,8-4.3
					c1,0,1.8,0.8,1.8,1.9c0,1-0.8,1.9-1.8,1.9c-2.2,0-3.7,1.5-5.5,3.3C107.1,96.1,104.8,98.5,101,98.5"/>
			</g>
		</g>
		<g class="st3">
			<g>
				<defs>
					<rect id="SVGID_7_" x="35.4" y="76" width="74.4" height="10"/>
				</defs>
				<clipPath id="SVGID_8_">
					<use xlink:href="#SVGID_7_"  style="overflow:visible;"/>
				</clipPath>
				<path class="st4" d="M96.4,86c-3.1,0-5-1.9-6.8-3.6c-1.7-1.6-3.2-3.1-5.7-3.1c-1.7,0-2.4,0.8-3.7,2.4c-1.4,1.9-3.3,4.2-7.5,4.2
					c-3.7,0-5.8-2-7.5-3.8c-1.5-1.6-2.8-2.9-5.2-2.9c-2,0-3.2,1.3-4.6,2.8c-1.6,1.7-3.6,3.9-7.1,3.9c-2.9,0-5.1-2.1-7.1-3.9
					c-1.5-1.4-3-2.8-4.3-2.8c-0.9,0-1.5-0.7-1.5-1.6c0-0.9,0.7-1.6,1.5-1.6c2.6,0,4.5,1.8,6.5,3.6c1.7,1.5,3.2,3.1,5,3.1
					c2.2,0,3.4-1.3,4.8-2.9C55,78,56.9,76,60.3,76c3.7,0,5.7,2,7.4,3.8c1.5,1.6,2.8,2.9,5.4,2.9c2.8,0,3.8-1.4,5.1-3
					c1.3-1.6,2.8-3.6,6-3.6c3.7,0,6,2.2,7.8,4c1.5,1.5,2.8,2.7,4.7,2.7c2,0,3.2-1.4,4.8-2.9c1.7-1.8,3.7-3.8,6.8-3.8
					c0.9,0,1.5,0.7,1.5,1.6s-0.7,1.6-1.5,1.6c-1.9,0-3.1,1.4-4.7,2.9C101.6,84,99.7,86,96.4,86"/>
			</g>
		</g>
		<g class="st5">
			<g>
				<defs>
					<rect id="SVGID_9_" x="30.2" y="99.5" width="84.1" height="11.1"/>
				</defs>
				<clipPath id="SVGID_10_">
					<use xlink:href="#SVGID_9_"  style="overflow:visible;"/>
				</clipPath>
				<path class="st6" d="M99.2,110.6c-3.5,0-5.7-2.3-7.7-4.3c-1.9-1.8-3.7-3.4-6.5-3.3c-1.9,0-2.7,0.9-4.1,2.7
					c-1.6,2.1-3.8,4.9-8.5,4.9c-4.2,0-6.6-2.1-8.5-4.1c-1.7-1.7-3.2-3.2-5.9-3.1c-2.3,0-3.7,1.5-5.2,3.2c-1.8,1.9-4.1,4-8,4
					c-3.3,0-5.8-2.1-8-4.1c-1.7-1.6-3.4-3.2-4.9-3.2c-1,0-1.7-0.9-1.7-1.9s0.8-1.8,1.7-1.8c2.9,0,5.1,2.1,7.3,4.2
					c1.9,1.8,3.7,3.4,5.7,3.4c2.5,0,3.9-1.3,5.5-3.2c1.8-2.1,4-4.5,7.8-4.5c4.2,0,6.5,2.3,8.4,4.3c1.7,1.8,3.2,3.1,6.1,3.1
					c3.2,0,4.3-1.6,5.8-3.4c1.4-1.8,3.2-3.9,6.8-3.9c4.2,0,6.9,2.1,8.9,4.1c1.7,1.7,3.2,3,5.3,3c2.2,0,3.7-1.5,5.4-3.2
					c1.9-1.9,4.1-3.9,7.7-4c1,0,1.7,0.8,1.7,1.8s-0.8,1.8-1.7,1.7c-2.1-0.1-3.6,1.4-5.3,3.1C105.1,108.1,102.9,110.6,99.2,110.6"/>
			</g>
		</g>
		<g class="st7">
			<g>
				<defs>
					<rect id="SVGID_11_" x="28.8" y="110.1" width="85" height="9.6"/>
				</defs>
				<clipPath id="SVGID_12_">
					<use xlink:href="#SVGID_11_"  style="overflow:visible;"/>
				</clipPath>
				<path class="st8" d="M98.7,119.7c-3.5,0-5.7-1.8-7.8-3.5c-1.9-1.6-3.7-2.9-6.5-2.9c-1.9,0-2.7,0.8-4.2,2.3
					c-1.7,1.8-3.8,4.1-8.6,4.1c-4.3,0-6.6-1.9-8.6-3.6c-1.8-1.6-3.2-2.8-5.9-2.8c-2.3,0-3.7,1.2-5.3,2.7c-1.8,1.6-4.1,3.7-8.1,3.7
					c-3.3,0-5.8-2-8.1-3.7c-1.8-1.4-3.4-2.7-5-2.7c-1,0-1.8-0.7-1.8-1.6c0-0.9,0.8-1.6,1.8-1.6c2.9,0,5.2,1.7,7.4,3.5
					c1.9,1.5,3.7,2.9,5.7,2.9c2.5,0,3.9-1.2,5.5-2.8c1.8-1.7,4-3.6,7.9-3.6c4.3,0,6.5,1.9,8.5,3.6c1.8,1.6,3.2,2.8,6.1,2.8
					c3.2,0,4.4-1.3,5.8-2.9c1.4-1.6,3.2-3.5,6.9-3.5c4.3,0,6.9,2.1,9,3.8c1.8,1.5,3.2,2.6,5.4,2.6c2.2,0,3.7-1.3,5.4-2.8
					c1.9-1.7,4.2-3.6,7.8-3.6c1,0,1.8,0.7,1.8,1.6c0,0.9-0.8,1.6-1.8,1.6c-2.1,0-3.6,1.3-5.4,2.8
					C104.7,117.7,102.4,119.7,98.7,119.7"/>
			</g>
		</g>
		<path class="st9" d="M94.1,70.7H48.5c-6.4,0-11.6-5.2-11.6-11.6c0-4.5,2.6-8.6,6.7-10.5c0.3-0.1,1.8-0.7,1.8-2.6
			c0-11.8,11.2-21.3,25-21.3s25,9.6,25,21.3c0,0.7,0.4,1.5,0.6,1.7c5.5,0.6,9.8,5.6,9.8,11.4C105.7,65.5,100.5,70.7,94.1,70.7
			 M70.3,27.1c-12.4,0-22.5,8.5-22.5,18.9c0,3.7-3.2,4.8-3.3,4.8c-3.1,1.5-5.1,4.7-5.1,8.3c0,5.1,4.1,9.2,9.2,9.2h45.6
			c5.1,0,9.2-4.1,9.2-9.2c0-4.6-3.4-8.5-7.8-9.1c-1.6-0.2-2.6-2.5-2.6-4C92.9,35.6,82.8,27.1,70.3,27.1"/>
	</g>
</g>
</svg>
