<?xml version="1.0" encoding="utf-8"?>
<!-- Generator: Adobe Illustrator 22.0.1, SVG Export Plug-In . SVG Version: 6.00 Build 0)  -->
<svg version="1.1" id="Layer_1" xmlns="http://www.w3.org/2000/svg" xmlns:xlink="http://www.w3.org/1999/xlink" x="0px" y="0px"
	 viewBox="0 0 144 144" style="enable-background:new 0 0 144 144;" xml:space="preserve">
<style type="text/css">
	.st0{clip-path:url(#SVGID_2_);fill:#B7B7B7;}
	.st1{clip-path:url(#SVGID_2_);fill:#28ABEF;}
</style>
<g>
	<defs>
		<rect id="SVGID_1_" width="144" height="144"/>
	</defs>
	<clipPath id="SVGID_2_">
		<use xlink:href="#SVGID_1_"  style="overflow:visible;"/>
	</clipPath>
	<path class="st0" d="M82.9,54.4c-0.3,0-0.6,0-0.9-0.2c-1.3-0.5-2-1.9-1.5-3.2l1.8-4.8c0.5-1.3,1.9-2,3.2-1.5c1.3,0.5,2,1.9,1.5,3.2
		l-1.8,4.8C84.9,53.7,83.9,54.4,82.9,54.4"/>
	<path class="st0" d="M90.7,35c-0.3,0-0.6,0-0.9-0.2c-1.3-0.5-2-1.9-1.5-3.2l1.8-4.8c0.5-1.3,1.9-2,3.2-1.5c1.3,0.5,2,1.9,1.5,3.2
		L93,33.3C92.7,34.3,91.8,35,90.7,35"/>
	<path class="st0" d="M53,49c-0.3,0-0.6,0-0.9-0.2c-1.3-0.5-2-1.9-1.5-3.2l1.8-4.8c0.5-1.3,1.9-2,3.2-1.5s2,1.9,1.5,3.2l-1.8,4.8
		C54.9,48.4,54,49,53,49"/>
	<path class="st0" d="M64.4,63.4c-0.3,0-0.6,0-0.9-0.1c-1.3-0.5-2-1.9-1.5-3.2l1.8-4.8c0.5-1.3,1.9-2,3.2-1.5c1.3,0.5,2,1.9,1.5,3.2
		l-1.8,4.8C66.3,62.8,65.4,63.4,64.4,63.4"/>
	<path class="st0" d="M71.6,44.2c-0.3,0-0.6,0-0.9-0.2c-1.3-0.5-2-1.9-1.5-3.2L71,36c0.5-1.3,1.9-2,3.2-1.5c1.3,0.5,2,1.9,1.5,3.2
		L74,42.5C73.6,43.6,72.7,44.2,71.6,44.2"/>
	<path class="st0" d="M99.2,60.7c-0.3,0-0.6,0-0.9-0.2c-1.3-0.5-2-1.9-1.5-3.2l1.8-4.8c0.5-1.3,1.9-2,3.2-1.5c1.3,0.5,2,1.9,1.5,3.2
		l-1.8,4.8C101.2,60,100.3,60.7,99.2,60.7"/>
	<path class="st1" d="M114.3,79.7H30.4c-1.4,0-2.5-1.1-2.5-2.5c0-1.4,1.1-2.5,2.5-2.5h83.9c1.4,0,2.5,1.1,2.5,2.5
		C116.8,78.6,115.7,79.7,114.3,79.7"/>
	<path class="st1" d="M72.4,120.1c-1.4,0-2.5-1.1-2.5-2.5V79c0-1.4,1.1-2.5,2.5-2.5c1.4,0,2.5,1.1,2.5,2.5v38.6
		C74.9,119,73.8,120.1,72.4,120.1"/>
	<path class="st1" d="M59.1,99.4c-1.4,0-2.5-1.1-2.5-2.5V79c0-1.4,1.1-2.5,2.5-2.5c1.4,0,2.5,1.1,2.5,2.5v17.8
		C61.6,98.2,60.4,99.4,59.1,99.4"/>
	<path class="st1" d="M85.7,103c-1.4,0-2.5-1.1-2.5-2.5V79c0-1.4,1.1-2.5,2.5-2.5c1.4,0,2.5,1.1,2.5,2.5v21.5
		C88.2,101.9,87,103,85.7,103"/>
	<path class="st1" d="M99.3,110.3c-1.4,0-2.5-1.1-2.5-2.5V79c0-1.4,1.1-2.5,2.5-2.5c1.4,0,2.5,1.1,2.5,2.5v28.8
		C101.8,109.2,100.6,110.3,99.3,110.3"/>
	<path class="st1" d="M45.1,105.2c-1.4,0-2.5-1.1-2.5-2.5V79c0-1.4,1.1-2.5,2.5-2.5c1.4,0,2.5,1.1,2.5,2.5v23.7
		C47.6,104.1,46.5,105.2,45.1,105.2"/>
	<path class="st1" d="M29.9,78.2c0,0,7.1,3.6,8.7,4.8c1.6,1.2,3,2.6,3.6,4.3c0.6,1.7,2.9,9,2.9,9s2.6-12,6.2-11.9
		c3.6,0.1,7.8,4.5,7.8,7.2c0,2.7,3.8-7.8,6.7-7.8c2.9,0,6.7,6.3,6.7,9.5c0,3.2,3.7-9.6,6.4-9.7c2.6-0.1,6.1,7.3,6.5,9.8
		s4.1-9.8,6.8-9.9c2.7-0.1,6.2,8.9,6.7,11.4s4.5-10.5,5.8-12c1.3-1.5,6.8-3.5,8-3.7c1.2-0.1,0.9-1.5,0.9-1.5l-80.9-0.4L29.9,78.2z"
		/>
</g>
</svg>
