<?xml version="1.0" encoding="utf-8"?>
<!-- Generator: Adobe Illustrator 22.0.1, SVG Export Plug-In . SVG Version: 6.00 Build 0)  -->
<svg version="1.1" id="Layer_1" xmlns="http://www.w3.org/2000/svg" xmlns:xlink="http://www.w3.org/1999/xlink" x="0px" y="0px"
	 viewBox="0 0 144 144" style="enable-background:new 0 0 144 144;" xml:space="preserve">
<style type="text/css">
	.st0{clip-path:url(#SVGID_2_);fill:#28ABEF;}
	.st1{clip-path:url(#SVGID_2_);fill:#B7B7B7;}
</style>
<g>
	<defs>
		<rect id="SVGID_1_" width="144" height="144"/>
	</defs>
	<clipPath id="SVGID_2_">
		<use xlink:href="#SVGID_1_"  style="overflow:visible;"/>
	</clipPath>
	<path class="st0" d="M38.3,108.2c-0.3,0-0.6-0.1-0.8-0.2c-1.1-0.5-1.7-1.8-1.2-2.9l3.6-8.6c0.5-1.1,1.8-1.6,2.9-1.2
		c1.1,0.5,1.7,1.8,1.2,2.9l-3.6,8.6C40,107.7,39.2,108.2,38.3,108.2"/>
	<path class="st0" d="M46.5,88.4c-0.3,0-0.6-0.1-0.8-0.2c-1.1-0.5-1.7-1.8-1.2-2.9l4.1-9.8c0.5-1.1,1.8-1.7,2.9-1.2
		c1.1,0.5,1.7,1.8,1.2,2.9L48.6,87C48.2,87.9,47.4,88.4,46.5,88.4"/>
	<path class="st0" d="M61.9,108.2c-0.3,0-0.6-0.1-0.8-0.2c-1.1-0.5-1.7-1.8-1.2-2.9l3.6-8.6c0.5-1.1,1.8-1.6,2.9-1.2
		c1.1,0.5,1.7,1.8,1.2,2.9l-3.6,8.6C63.5,107.7,62.7,108.2,61.9,108.2"/>
	<path class="st0" d="M70.1,88.4c-0.3,0-0.6-0.1-0.8-0.2c-1.1-0.5-1.7-1.8-1.2-2.9l4.1-9.8c0.5-1.1,1.8-1.7,2.9-1.2
		c1.1,0.5,1.7,1.8,1.2,2.9L72.2,87C71.8,87.9,71,88.4,70.1,88.4"/>
	<path class="st0" d="M84.2,108.2c-0.3,0-0.6-0.1-0.8-0.2c-1.1-0.5-1.7-1.8-1.2-2.9l3.6-8.6c0.5-1.1,1.8-1.6,2.9-1.2
		c1.1,0.5,1.7,1.8,1.2,2.9l-3.6,8.6C85.9,107.7,85.1,108.2,84.2,108.2"/>
	<path class="st0" d="M92.5,88.4c-0.3,0-0.6-0.1-0.8-0.2c-1.1-0.5-1.7-1.8-1.2-2.9l4.1-9.8c0.5-1.1,1.8-1.7,2.9-1.2
		c1.1,0.5,1.7,1.8,1.2,2.9L94.5,87C94.2,87.9,93.4,88.4,92.5,88.4"/>
	<path class="st0" d="M68.6,119.4c-0.3,0-0.6-0.1-0.8-0.2c-1.1-0.5-1.7-1.8-1.2-2.9l3.6-8.6c0.5-1.1,1.8-1.6,2.9-1.2
		c1.1,0.5,1.7,1.8,1.2,2.9l-3.6,8.6C70.3,118.9,69.5,119.4,68.6,119.4"/>
	<path class="st0" d="M76.9,99.6c-0.3,0-0.6-0.1-0.8-0.2c-1.1-0.5-1.7-1.8-1.2-2.9l4.1-9.8c0.5-1.1,1.8-1.7,2.9-1.2
		c1.1,0.5,1.7,1.8,1.2,2.9L79,98.2C78.5,99,77.7,99.6,76.9,99.6"/>
	<path class="st0" d="M45.6,119.1c-0.3,0-0.6-0.1-0.8-0.2c-1.1-0.5-1.7-1.8-1.2-2.9l3.6-8.6c0.5-1.1,1.8-1.7,2.9-1.2
		c1.1,0.5,1.7,1.8,1.2,2.9l-3.6,8.6C47.3,118.6,46.5,119.1,45.6,119.1"/>
	<path class="st0" d="M53.9,99.3c-0.3,0-0.6-0.1-0.8-0.2c-1.1-0.5-1.7-1.8-1.2-2.9l4.1-9.8c0.5-1.1,1.8-1.6,2.9-1.2
		c1.1,0.5,1.7,1.8,1.2,2.9L56,97.9C55.5,98.8,54.7,99.3,53.9,99.3"/>
	<path class="st1" d="M42.8,81.3h-0.2c-6.8-1-12-7-12-13.9c0-5.4,3.2-10.4,8-12.7c0.4-0.1,2.2-0.9,2.2-3.1
		c0-14.2,13.5-25.8,30.2-25.8s30.2,11.6,30.2,25.8c0,0.8,0.5,1.8,0.8,2c6.6,0.8,11.8,6.8,11.8,13.8c0,7-5,12.8-11.9,13.9
		c-0.8,0.1-1.5-0.4-1.7-1.2c-0.1-0.8,0.4-1.5,1.2-1.7c5.4-0.9,9.4-5.5,9.4-11c0-5.6-4.1-10.3-9.5-11c-1.9-0.2-3.1-3-3.1-4.8
		C98.2,39,86,28.8,71,28.8S43.7,38.9,43.7,51.5c0,4.5-3.9,5.8-4,5.8c-3.7,1.8-6.2,5.7-6.2,10c0,5.5,4.1,10.2,9.5,11
		c0.8,0.1,1.4,0.9,1.2,1.7C44.1,80.7,43.5,81.3,42.8,81.3"/>
</g>
</svg>
