<?xml version="1.0" encoding="utf-8"?>
<!-- Generator: Adobe Illustrator 22.0.1, SVG Export Plug-In . SVG Version: 6.00 Build 0)  -->
<svg version="1.1" id="Layer_1" xmlns="http://www.w3.org/2000/svg" xmlns:xlink="http://www.w3.org/1999/xlink" x="0px" y="0px"
	 viewBox="0 0 144 144" style="enable-background:new 0 0 144 144;" xml:space="preserve">
<style type="text/css">
	.st0{fill:#FFFFFF;}
	.st1{clip-path:url(#SVGID_2_);fill:#7A7A7A;}
	.st2{fill:#28ABEF;}
</style>
<rect class="st0" width="144" height="144"/>
<g>
	<defs>
		<rect id="SVGID_1_" width="144" height="144"/>
	</defs>
	<clipPath id="SVGID_2_">
		<use xlink:href="#SVGID_1_"  style="overflow:visible;"/>
	</clipPath>
	<path class="st1" d="M96.9,74c-0.3,0-0.5,0-0.8-0.1c-1.2-0.4-1.8-1.7-1.4-2.9l4.8-13.1c0,0,9.7-22.5,10.9-22.1
		c1.2,0.4-6.7,24-6.7,24l-4.6,12.7C98.7,73.4,97.9,74,96.9,74"/>
	<path class="st1" d="M75.2,92c-0.3,0-0.5,0-0.8-0.1c-1.2-0.4-1.8-1.7-1.4-2.9l4.8-13.1c0,0,13.9-34.6,15.1-34.2
		c1.1,0.3-11,36.1-11,36.1l-4.6,12.7C77,91.4,76.1,92,75.2,92"/>
	<path class="st1" d="M65.1,70.9c-0.3,0-0.5,0-0.8-0.1c-1.2-0.4-1.8-1.7-1.4-2.9l4.8-13.1c0,0,13.7-30.2,14.8-29.8
		c1.2,0.4-10.7,31.8-10.7,31.8l-4.6,12.7C66.9,70.3,66.1,70.9,65.1,70.9"/>
	<path class="st1" d="M44.7,79.8c-0.3,0-0.5,0-0.8-0.1c-1.2-0.4-1.8-1.7-1.4-2.9l4.8-13.1c0,0,9.7-22.5,10.9-22.1
		c1.2,0.4-6.7,24-6.7,24l-4.6,12.7C46.5,79.3,45.6,79.8,44.7,79.8"/>
</g>
<rect x="88.1" y="83.1" transform="matrix(0.866 -0.5 0.5 0.866 -31.3871 58.0599)" class="st2" width="9.1" height="9.1"/>
<rect x="55.9" y="81.1" transform="matrix(0.866 -0.5 0.5 0.866 -34.7274 41.6932)" class="st2" width="9.1" height="9.1"/>
<rect x="35.7" y="90.8" transform="matrix(0.866 -0.5 0.5 0.866 -42.2571 32.892)" class="st2" width="9.1" height="9.1"/>
<rect x="61.4" y="100.3" transform="matrix(0.8661 -0.4999 0.4999 0.8661 -44.6288 48.8223)" class="st2" width="14.8" height="14.8"/>
</svg>
