<?xml version="1.0" encoding="utf-8"?>
<!-- Generator: Adobe Illustrator 22.0.1, SVG Export Plug-In . SVG Version: 6.00 Build 0)  -->
<svg version="1.1" id="Layer_1" xmlns="http://www.w3.org/2000/svg" xmlns:xlink="http://www.w3.org/1999/xlink" x="0px" y="0px"
	 viewBox="0 0 144 144" style="enable-background:new 0 0 144 144;" xml:space="preserve">
<style type="text/css">
	.st0{clip-path:url(#SVGID_2_);fill:#FFFFFF;}
	.st1{clip-path:url(#SVGID_2_);fill:#28ABEF;}
	.st2{clip-path:url(#SVGID_4_);fill:#B7B7B7;}
</style>
<g>
	<defs>
		<rect id="SVGID_1_" width="144" height="144"/>
	</defs>
	<clipPath id="SVGID_2_">
		<use xlink:href="#SVGID_1_"  style="overflow:visible;"/>
	</clipPath>
	<path class="st0" d="M31,42.8c1.1,0,2,0.9,2,2c0,1.1-0.9,2-2,2c-1.1,0-2-0.9-2-2C29,43.7,29.9,42.8,31,42.8"/>
	<path class="st0" d="M64.3,26.8c1.1,0,2,0.9,2,2c0,1.1-0.9,2-2,2c-1.1,0-2-0.9-2-2C62.3,27.7,63.2,26.8,64.3,26.8"/>
	<path class="st0" d="M32.5,115.4c0.8,0,1.5,0.7,1.5,1.5c0,0.8-0.7,1.5-1.5,1.5c-0.8,0-1.5-0.7-1.5-1.5
		C31,116.1,31.7,115.4,32.5,115.4"/>
	<path class="st0" d="M113.3,94.3c0.8,0,1.5,0.7,1.5,1.5c0,0.8-0.7,1.5-1.5,1.5c-0.8,0-1.5-0.7-1.5-1.5
		C111.8,95,112.5,94.3,113.3,94.3"/>
	<path class="st1" d="M119.3,72.1c-4,4.6-10,7.5-16.6,7.5c-12.2,0-22.1-9.9-22.1-22.1c0-11.1,8.1-20.2,18.8-21.8
		c0,0-10.2,13.1-2.8,25.6C105,75.3,119.3,72.1,119.3,72.1"/>
</g>
<g>
	<defs>
		<rect id="SVGID_3_" width="144" height="144"/>
	</defs>
	<clipPath id="SVGID_4_">
		<use xlink:href="#SVGID_3_"  style="overflow:visible;"/>
	</clipPath>
	<path class="st2" d="M34.9,107c-6.1,0-11.1-6-11.1-13.5c0-5.1,2.4-9.9,6.3-12c0.3-0.2,1.8-0.8,1.8-3.3c0-13.6,10.7-24.7,23.9-24.7
		c10.5,0,19.7,7.1,23,17.9c0.2,0.5,2.2,1.6,4.1,1.6c6,0,11.7,3.3,14.7,8.5c0.3,0.5,1.5,1.2,3.7,1.2c6.5,0,11.9,5.3,11.9,11.9
		c0,6.7-5.5,12.4-11.9,12.4L78.5,107H34.9z M55.7,55.8c-11.9,0-21.4,10.1-21.4,22.4c0,4.1-3,5.4-3.1,5.5c-2.9,1.7-5,5.6-5,10
		c0,6.1,4,11,8.7,11l66.3-0.1c5,0,9.4-4.7,9.4-10c0-5.2-4.2-9.4-9.4-9.4c-2.7,0-4.9-0.9-5.7-2.4c-2.7-4.6-7.5-7.3-12.8-7.3
		c-2.8,0-5.9-1.6-6.4-3.3C73.4,62.4,65.1,55.8,55.7,55.8"/>
</g>
</svg>
