<?xml version="1.0" encoding="utf-8"?>
<!-- Generator: Adobe Illustrator 22.0.1, SVG Export Plug-In . SVG Version: 6.00 Build 0)  -->
<svg version="1.1" id="Layer_1" xmlns="http://www.w3.org/2000/svg" xmlns:xlink="http://www.w3.org/1999/xlink" x="0px" y="0px"
	 viewBox="0 0 144 144" style="enable-background:new 0 0 144 144;" xml:space="preserve">
<style type="text/css">
	.st0{clip-path:url(#SVGID_2_);fill:#FFFFFF;}
	.st1{clip-path:url(#SVGID_2_);fill:#28ABEF;}
	.st2{clip-path:url(#SVGID_4_);fill:#B7B7B7;}
</style>
<g>
	<defs>
		<rect id="SVGID_1_" width="144" height="144"/>
	</defs>
	<clipPath id="SVGID_2_">
		<use xlink:href="#SVGID_1_"  style="overflow:visible;"/>
	</clipPath>
	<path class="st0" d="M31,42.8c1.1,0,2,0.9,2,2c0,1.1-0.9,2-2,2c-1.1,0-2-0.9-2-2C29,43.7,29.9,42.8,31,42.8"/>
	<path class="st0" d="M64.3,26.8c1.1,0,2,0.9,2,2c0,1.1-0.9,2-2,2c-1.1,0-2-0.9-2-2C62.3,27.7,63.2,26.8,64.3,26.8"/>
	<path class="st0" d="M32.5,115.4c0.8,0,1.5,0.7,1.5,1.5c0,0.8-0.7,1.5-1.5,1.5c-0.8,0-1.5-0.7-1.5-1.5
		C31,116.1,31.7,115.4,32.5,115.4"/>
	<path class="st0" d="M113.3,94.3c0.8,0,1.5,0.7,1.5,1.5c0,0.8-0.7,1.5-1.5,1.5c-0.8,0-1.5-0.7-1.5-1.5
		C111.8,95,112.5,94.3,113.3,94.3"/>
	<path class="st1" d="M116.5,74.6c-3.9,4.4-9.7,7.2-16,7.2c-11.8,0-21.4-9.6-21.4-21.4c0-10.7,7.9-19.6,18.2-21.2
		c0,0-9.9,12.7-2.7,24.7C102.6,77.7,116.5,74.6,116.5,74.6"/>
</g>
<g>
	<defs>
		<rect id="SVGID_3_" width="144" height="144"/>
	</defs>
	<clipPath id="SVGID_4_">
		<use xlink:href="#SVGID_3_"  style="overflow:visible;"/>
	</clipPath>
	<path class="st2" d="M78.2,108.1h-41c-5.8,0-10.4-4.7-10.4-10.4c0-4,2.4-7.8,6-9.4c0.3-0.1,1.6-0.6,1.6-2.4
		c0-10.6,10.1-19.1,22.5-19.1s22.5,8.6,22.5,19.1c0,0.6,0.4,1.4,0.5,1.6c4.9,0.5,8.8,5,8.8,10.2C88.6,103.4,83.9,108.1,78.2,108.1
		 M56.8,69c-11.1,0-20.2,7.7-20.2,17c0,3.3-2.8,4.3-2.9,4.3c-2.7,1.4-4.6,4.2-4.6,7.5c0,4.6,3.7,8.2,8.2,8.2h40.9
		c4.6,0,8.2-3.7,8.2-8.2c0-4.1-3-7.7-7-8.1c-1.5-0.2-2.4-2.3-2.4-3.6C77.1,76.6,68,69,56.8,69"/>
</g>
</svg>
