<?xml version="1.0" encoding="utf-8"?>
<!-- Generator: Adobe Illustrator 22.0.1, SVG Export Plug-In . SVG Version: 6.00 Build 0)  -->
<svg version="1.1" id="Layer_1" xmlns="http://www.w3.org/2000/svg" xmlns:xlink="http://www.w3.org/1999/xlink" x="0px" y="0px"
	 viewBox="0 0 144 144" style="enable-background:new 0 0 144 144;" xml:space="preserve">
<style type="text/css">
	.st0{clip-path:url(#SVGID_2_);fill:#B7B7B7;}
	.st1{clip-path:url(#SVGID_4_);fill:url(#SVGID_5_);}
</style>
<g>
	<defs>
		<rect id="SVGID_1_" width="144" height="144"/>
	</defs>
	<clipPath id="SVGID_2_">
		<use xlink:href="#SVGID_1_"  style="overflow:visible;"/>
	</clipPath>
	<path class="st0" d="M98.5,78.6H83.3c-0.8,0-1.4-0.6-1.4-1.4c0-0.8,0.6-1.4,1.4-1.4h15.2c5.9,0,10.7-4.8,10.7-10.7
		c0-5.4-3.9-9.9-9.1-10.6c-1.9-0.2-3-2.9-3-4.7c0-12.1-11.8-22-26.2-22s-26.2,9.9-26.2,22c0,4.3-3.7,5.6-3.9,5.6
		c-3.6,1.7-6,5.5-6,9.6c0,5.9,4.8,10.7,10.7,10.7h10.9c0.8,0,1.4,0.6,1.4,1.4c0,0.8-0.6,1.4-1.4,1.4H45.5C38,78.5,32,72.4,32,65
		c0-5.2,3-10,7.8-12.2c0.3-0.1,2.1-0.8,2.1-3C41.9,36.1,54.9,25,71,25s29.1,11.1,29.1,24.8c0,0.8,0.5,1.8,0.7,1.9
		c6.4,0.7,11.4,6.5,11.4,13.3C112.1,72.5,106,78.6,98.5,78.6"/>
</g>
<g>
	<defs>
		<polygon id="SVGID_3_" points="64.1,69.3 60.5,92.2 68.4,92.2 64.5,119.9 83.4,82.2 75.2,82.2 79.6,69.3 		"/>
	</defs>
	<clipPath id="SVGID_4_">
		<use xlink:href="#SVGID_3_"  style="overflow:visible;"/>
	</clipPath>
	
		<linearGradient id="SVGID_5_" gradientUnits="userSpaceOnUse" x1="0" y1="144" x2="1" y2="144" gradientTransform="matrix(0 50.6 -50.6 0 7358.3496 69.3)">
		<stop  offset="0" style="stop-color:#EC6F32"/>
		<stop  offset="6.289590e-02" style="stop-color:#EC7935"/>
		<stop  offset="0.2401" style="stop-color:#EE8E3B"/>
		<stop  offset="0.4364" style="stop-color:#EE9D40"/>
		<stop  offset="0.6646" style="stop-color:#EFA642"/>
		<stop  offset="1" style="stop-color:#EFA943"/>
	</linearGradient>
	<rect x="60.5" y="69.3" class="st1" width="22.9" height="50.6"/>
</g>
</svg>
