<?xml version="1.0" encoding="utf-8"?>
<!-- Generator: Adobe Illustrator 22.0.1, SVG Export Plug-In . SVG Version: 6.00 Build 0)  -->
<svg version="1.1" id="Layer_1" xmlns="http://www.w3.org/2000/svg" xmlns:xlink="http://www.w3.org/1999/xlink" x="0px" y="0px"
	 viewBox="0 0 144 144" style="enable-background:new 0 0 144 144;" xml:space="preserve">
<style type="text/css">
	.st0{clip-path:url(#SVGID_2_);fill:#28ABEF;}
	.st1{clip-path:url(#SVGID_4_);fill:#28ABEF;}
	.st2{clip-path:url(#SVGID_6_);fill:#28ABEF;}
</style>
<g>
	<defs>
		<rect id="SVGID_1_" width="144" height="144"/>
	</defs>
	<clipPath id="SVGID_2_">
		<use xlink:href="#SVGID_1_"  style="overflow:visible;"/>
	</clipPath>
	<path class="st0" d="M46.6,100.5c-0.9-0.2-1.8-0.9-2.1-1.8c-0.6-1.5,0.2-3.1,1.6-3.6l61.3-22.9c1.5-0.6,3.1,0.2,3.6,1.6
		c0.6,1.5-0.2,3.1-1.6,3.6l-61.3,22.9C47.6,100.5,47.2,100.6,46.6,100.5"/>
	<path class="st0" d="M54.8,109l-0.3-0.1c-1.5-0.4-2.3-1.9-1.9-3.5l3.1-10.8l-9.5-5.6c-1.4-0.8-1.8-2.5-1-3.8c0.8-1.4,2.5-1.8,3.8-1
		L62.3,92L58,107C57.6,108.4,56.2,109.2,54.8,109"/>
	<path class="st0" d="M107.8,89.1c-0.3-0.1-0.7-0.2-1-0.4l-13.2-8.3l4.3-14.4c0.5-1.5,2-2.3,3.5-1.9c1.5,0.5,2.3,2,1.9,3.5
		l-3.1,10.3l9.5,6c1.4,0.8,1.7,2.6,0.9,3.8C109.9,88.9,108.8,89.3,107.8,89.1"/>
	<path class="st0" d="M73.5,120.6c-0.7,0.7-1.6,1.1-2.6,0.9c-1.6-0.3-2.5-1.8-2.2-3.3l12.4-64.3c0.3-1.6,1.8-2.5,3.3-2.2
		c1.6,0.3,2.5,1.8,2.2,3.3l-12.4,64.3C74.1,119.7,73.9,120.2,73.5,120.6"/>
	<path class="st0" d="M85,118c0,0.1-0.1,0.1-0.1,0.2c-1.2,1.1-2.9,1-3.9-0.2l-7.6-8.3l-9.7,5.2c-1.3,0.7-3,0.2-3.8-1.1
		c-0.7-1.3-0.2-3,1.1-3.8l13.5-7.2l10.5,11.6C86,115.3,86,117,85,118"/>
	<path class="st0" d="M95.7,62.5c-0.3,0.3-0.5,0.4-0.9,0.6l-14,6.8l-10-11.3c-1.1-1.2-0.9-3,0.2-3.9c1.2-1.1,3-0.9,3.9,0.2l7.2,8
		l10.1-5c1.4-0.7,3-0.1,3.7,1.2C96.7,60.5,96.5,61.7,95.7,62.5"/>
	<path class="st0" d="M104.6,108.1c0.3,0.9,0.1,1.9-0.6,2.7c-1.1,1.1-2.8,1.2-4,0.1L51.8,66.7c-1.1-1.1-1.2-2.8-0.1-4
		c1.1-1.1,2.8-1.2,4-0.1l48.1,44.4C104.2,107.2,104.5,107.7,104.6,108.1"/>
	<path class="st0" d="M108.4,97c0,0.1,0.1,0.2,0.1,0.2c0.2,1.6-0.7,3-2.2,3.2l-11.1,2.1l-0.7,11c-0.1,1.6-1.4,2.8-3,2.7
		c-1.6-0.1-2.8-1.4-2.7-3l0.9-15.3l15.4-2.9C106.7,94.8,108,95.6,108.4,97"/>
	<path class="st0" d="M66.9,58.8c0,0.3,0.1,0.7,0.1,1.1l-1.5,15.4L50.7,78c-1.6,0.2-3-0.8-3.2-2.2c-0.2-1.6,0.8-3,2.2-3.2l10.6-1.9
		l1-11.2c0.2-1.6,1.5-2.7,3.1-2.5C65.6,57,66.5,57.8,66.9,58.8"/>
</g>
<g>
	<defs>
		<rect id="SVGID_3_" width="144" height="144"/>
	</defs>
	<clipPath id="SVGID_4_">
		<use xlink:href="#SVGID_3_"  style="overflow:visible;"/>
	</clipPath>
	<path class="st1" d="M27.6,59.7c-0.3,0-0.5,0-0.7-0.2c-0.2-0.3-0.2-0.8,0.1-1l12.3-10.8c0.3-0.2,0.8-0.2,1,0.1
		c0.2,0.3,0.2,0.8-0.1,1L27.9,59.5C27.8,59.6,27.7,59.7,27.6,59.7"/>
	<path class="st1" d="M30.2,61L30.2,61c-0.4,0.1-0.8-0.2-0.9-0.7l-0.2-2.8l-2.7-0.4c-0.4,0-0.6-0.4-0.6-0.8c0-0.4,0.4-0.6,0.8-0.6
		l3.8,0.6l0.3,3.9C30.8,60.6,30.5,60.9,30.2,61"/>
	<path class="st1" d="M40.8,51.6c-0.1,0-0.2,0-0.3,0l-3.8-0.8L36.4,47c-0.1-0.4,0.2-0.7,0.7-0.8c0.4-0.1,0.7,0.2,0.8,0.7l0.2,2.7
		l2.8,0.6c0.4,0.1,0.6,0.4,0.5,0.8C41.3,51.4,41.1,51.6,40.8,51.6"/>
	<path class="st1" d="M35.7,62c-0.1,0.2-0.3,0.4-0.6,0.5c-0.4,0.1-0.8-0.2-0.8-0.6l-2.8-16.1c-0.1-0.4,0.2-0.8,0.6-0.8
		c0.4-0.1,0.8,0.2,0.8,0.6l2.8,16.1C35.7,61.8,35.7,61.9,35.7,62"/>
	<path class="st1" d="M38.1,60.3C38.1,60.4,38.1,60.4,38.1,60.3c-0.2,0.4-0.6,0.6-0.9,0.4l-2.5-1.3l-1.8,2.1c-0.2,0.3-0.7,0.3-1,0.1
		c-0.3-0.2-0.3-0.7-0.1-1l2.5-2.9l3.5,1.7C38.1,59.7,38.2,60,38.1,60.3"/>
	<path class="st1" d="M35.6,46.5c-0.1,0.1-0.1,0.2-0.1,0.2l-2.7,2.9l-3.3-1.8c-0.3-0.2-0.5-0.6-0.3-1c0.2-0.3,0.6-0.5,1-0.3l2.4,1.2
		l1.9-2.1c0.2-0.3,0.7-0.3,1,0C35.7,45.9,35.7,46.2,35.6,46.5"/>
	<path class="st1" d="M41.8,56.3c0.1,0.2,0.2,0.4,0.1,0.7c-0.1,0.4-0.5,0.6-0.9,0.4l-15.3-6.1c-0.4-0.1-0.6-0.5-0.4-0.9
		c0.1-0.4,0.5-0.6,0.9-0.4l15.3,6.1C41.6,56.1,41.7,56.2,41.8,56.3"/>
	<path class="st1" d="M41.7,53.4L41.7,53.4c0.3,0.4,0.1,0.8-0.2,1l-2.4,1.4l0.8,2.6c0.2,0.3-0.1,0.8-0.5,0.9
		c-0.3,0.2-0.8-0.1-0.9-0.5l-1.1-3.6l3.4-2.1C41.1,53,41.4,53.1,41.7,53.4"/>
	<path class="st1" d="M28.6,48.2c0,0.1,0.1,0.2,0.1,0.2l1,3.7l-3.3,2c-0.3,0.2-0.8,0.1-1-0.3c-0.2-0.3-0.1-0.8,0.3-1l2.3-1.4
		l-0.8-2.7c-0.1-0.4,0.1-0.8,0.5-0.9C28.1,47.8,28.4,48,28.6,48.2"/>
</g>
<g>
	<defs>
		<rect id="SVGID_5_" width="144" height="144"/>
	</defs>
	<clipPath id="SVGID_6_">
		<use xlink:href="#SVGID_5_"  style="overflow:visible;"/>
	</clipPath>
	<path class="st2" d="M96.4,46.5c-0.3,0-0.7-0.2-0.8-0.5c-0.3-0.5-0.1-1.1,0.3-1.4l19.7-11.9c0.5-0.3,1.1-0.1,1.4,0.3
		c0.3,0.5,0.1,1.1-0.3,1.4l-19.8,12C96.7,46.5,96.5,46.5,96.4,46.5"/>
	<path class="st2" d="M99.7,48.9L99.7,48.9c-0.6-0.1-1-0.5-1-1.1l0.4-3.9l-3.6-1.3c-0.5-0.2-0.8-0.7-0.6-1.3
		c0.2-0.5,0.7-0.8,1.3-0.6l5.1,1.8l-0.5,5.5C100.7,48.5,100.2,48.9,99.7,48.9"/>
	<path class="st2" d="M116.7,38.6c-0.1,0-0.2,0-0.4-0.1l-5.1-2l0.6-5.3c0.1-0.5,0.5-0.9,1.1-0.9c0.5,0.1,0.9,0.5,0.9,1.1l-0.4,3.8
		l3.7,1.5c0.5,0.2,0.8,0.8,0.6,1.3C117.5,38.4,117.1,38.6,116.7,38.6"/>
	<path class="st2" d="M107,51.7c-0.2,0.3-0.5,0.5-0.8,0.5c-0.5,0-1-0.4-1-1l0.1-23c0-0.5,0.4-1,1-1c0.5,0,1,0.4,1,1l-0.1,23
		C107.1,51.4,107.1,51.5,107,51.7"/>
	<path class="st2" d="M110.8,50C110.8,50.1,110.7,50.1,110.8,50c-0.4,0.5-1,0.6-1.4,0.3l-3.2-2.4l-3,2.4c-0.4,0.3-1,0.3-1.4-0.1
		c-0.3-0.4-0.3-1,0.1-1.4l4.2-3.4l4.4,3.3C110.9,49.1,111,49.6,110.8,50"/>
	<path class="st2" d="M110.8,30.2c-0.1,0.1-0.1,0.2-0.2,0.3l-4.4,3.3l-4.2-3.2c-0.4-0.3-0.5-1-0.2-1.4c0.3-0.4,1-0.5,1.4-0.2l3,2.3
		l3.2-2.4c0.4-0.3,1.1-0.2,1.4,0.2C111,29.4,111,29.8,110.8,30.2"/>
	<path class="st2" d="M116.9,45.4c0.2,0.3,0.1,0.7,0,1c-0.3,0.5-0.9,0.6-1.4,0.3L96,34.5c-0.5-0.3-0.6-0.9-0.3-1.4
		c0.3-0.5,0.9-0.6,1.4-0.3L116.5,45C116.7,45.1,116.8,45.2,116.9,45.4"/>
	<path class="st2" d="M117.5,41.3L117.5,41.3c0.2,0.6,0,1.2-0.5,1.4l-3.7,1.4l0.5,3.8c0.1,0.5-0.3,1-0.9,1.1c-0.5,0.1-1-0.3-1.1-0.9
		l-0.7-5.4l5.1-2C116.7,40.6,117.3,40.8,117.5,41.3"/>
	<path class="st2" d="M100.6,30.8c0.1,0.1,0.1,0.2,0.1,0.4l0.5,5.4l-4.9,1.9c-0.5,0.2-1.1-0.1-1.3-0.6c-0.2-0.5,0.1-1.1,0.6-1.3
		l3.5-1.3l-0.4-4c0-0.5,0.4-1,0.9-1.1C100.1,30.2,100.5,30.4,100.6,30.8"/>
</g>
</svg>
