<?xml version="1.0" encoding="utf-8"?>
<!-- Generator: Adobe Illustrator 22.0.1, SVG Export Plug-In . SVG Version: 6.00 Build 0)  -->
<svg version="1.1" id="Layer_1" xmlns="http://www.w3.org/2000/svg" xmlns:xlink="http://www.w3.org/1999/xlink" x="0px" y="0px"
	 viewBox="0 0 144 144" style="enable-background:new 0 0 144 144;" xml:space="preserve">
<style type="text/css">
	.st0{clip-path:url(#SVGID_2_);fill:#28ABEF;}
</style>
<g>
	<defs>
		<rect id="SVGID_1_" width="144" height="144"/>
	</defs>
	<clipPath id="SVGID_2_">
		<use xlink:href="#SVGID_1_"  style="overflow:visible;"/>
	</clipPath>
	<path class="st0" d="M72.8,65.9H31.2v-5.2h41.6c4.8,0,8.8-3.9,8.8-8.8c0-4.9-3.9-8.9-8.8-8.9c-4.9,0-8.8,4-8.8,8.8h-5.2
		c0-7.7,6.3-14,14-14s14,6.3,14,14S80.6,65.9,72.8,65.9"/>
	<path class="st0" d="M104.9,79.7h-80v-5.2H105c4.8,0,8.6-3.9,8.6-8.6c0-4.7-3.9-8.6-8.6-8.6c-4.7,0-8.6,3.9-8.6,8.6h-5.2
		c0-7.6,6.2-13.9,13.9-13.9c7.7,0,13.9,6.2,13.9,13.9C119,73.6,112.6,79.7,104.9,79.7"/>
	<path class="st0" d="M94.6,107.6c-5.7,0-10.3-4.6-10.3-10.3h5.2c0,2.8,2.3,5,5,5c2.8,0,5-2.3,5-5c0-2.8-2.3-5-5-5H45.4v-5.2h49.3
		c5.7,0,10.3,4.6,10.3,10.3C105,103.1,100.3,107.6,94.6,107.6"/>
</g>
</svg>
