<?xml version="1.0" encoding="utf-8"?>
<!-- Generator: Adobe Illustrator 22.0.1, SVG Export Plug-In . SVG Version: 6.00 Build 0)  -->
<svg version="1.1" id="Layer_1" xmlns="http://www.w3.org/2000/svg" xmlns:xlink="http://www.w3.org/1999/xlink" x="0px" y="0px"
	 viewBox="0 0 144 144" style="enable-background:new 0 0 144 144;" xml:space="preserve">
<style type="text/css">
	.st0{clip-path:url(#SVGID_2_);fill:#F7B148;}
</style>
<g>
	<defs>
		<rect id="SVGID_1_" width="144" height="144"/>
	</defs>
	<clipPath id="SVGID_2_">
		<use xlink:href="#SVGID_1_"  style="overflow:visible;"/>
	</clipPath>
	<path class="st0" d="M71.4,55.2c9.6,0,17.3,7.7,17.3,17.3c0,9.6-7.7,17.3-17.3,17.3s-17.3-7.7-17.3-17.3
		C54.1,62.9,61.8,55.2,71.4,55.2"/>
	<path class="st0" d="M71.4,119.1c-1.2,0-2.2-1-2.2-2.2V96.2c0-1.2,1-2.2,2.2-2.2c1.2,0,2.2,1,2.2,2.2V117
		C73.6,118.1,72.6,119.1,71.4,119.1"/>
	<path class="st0" d="M71.4,51c-1.2,0-2.2-1-2.2-2.2V27.9c0-1.2,1-2.2,2.2-2.2c1.2,0,2.2,1,2.2,2.2v20.9C73.6,50.1,72.6,51,71.4,51"
		/>
	<path class="st0" d="M115.9,74.6H95.1c-1.2,0-2.2-1-2.2-2.2c0-1.2,1-2.2,2.2-2.2h20.8c1.2,0,2.2,1,2.2,2.2
		C118.1,73.6,117.1,74.6,115.9,74.6"/>
	<path class="st0" d="M47.8,74.6H26.9c-1.2,0-2.2-1-2.2-2.2c0-1.2,1-2.2,2.2-2.2h20.9c1.2,0,2.2,1,2.2,2.2
		C50,73.6,49,74.6,47.8,74.6"/>
	<path class="st0" d="M88.2,57.8c-0.6,0-1.1-0.2-1.5-0.6c-0.8-0.8-0.8-2.2,0-3.1l14.7-14.7c0.8-0.8,2.2-0.8,3.1,0
		c0.9,0.8,0.8,2.2,0,3.1L89.7,57.2C89.3,57.6,88.7,57.8,88.2,57.8"/>
	<path class="st0" d="M39.9,106.1c-0.6,0-1.1-0.2-1.5-0.6c-0.8-0.8-0.8-2.2,0-3.1l14.8-14.8c0.8-0.8,2.2-0.8,3.1,0
		c0.9,0.8,0.8,2.2,0,3.1l-14.8,14.8C41,105.9,40.5,106.1,39.9,106.1"/>
	<path class="st0" d="M54.6,57.8c-0.6,0-1.1-0.2-1.5-0.6L38.4,42.5c-0.8-0.8-0.8-2.2,0-3.1c0.8-0.8,2.2-0.8,3.1,0l14.7,14.7
		c0.8,0.8,0.8,2.2,0,3.1C55.7,57.6,55.2,57.8,54.6,57.8"/>
	<path class="st0" d="M102.9,106.1c-0.6,0-1.1-0.2-1.5-0.6L86.5,90.6c-0.8-0.8-0.8-2.2,0-3.1c0.8-0.9,2.2-0.8,3.1,0l14.8,14.8
		c0.8,0.8,0.8,2.2,0,3.1C104,105.9,103.4,106.1,102.9,106.1"/>
	<path class="st0" d="M83.5,103.3c-0.8,0-1.6-0.5-2-1.3l-2.9-6.9c-0.5-1.1,0.1-2.4,1.2-2.8c1.1-0.5,2.4,0.1,2.8,1.2l2.9,6.9
		c0.5,1.1-0.1,2.4-1.2,2.8C84,103.3,83.8,103.3,83.5,103.3"/>
	<path class="st0" d="M62.3,52.9c-0.8,0-1.6-0.5-2-1.3l-2.9-7c-0.5-1.1,0.1-2.4,1.2-2.8c1.1-0.5,2.4,0.1,2.8,1.2l2.9,7
		c0.5,1.1-0.1,2.4-1.2,2.8C62.8,52.8,62.5,52.9,62.3,52.9"/>
	<path class="st0" d="M93.3,65.4c-0.8,0-1.6-0.5-2-1.3c-0.5-1.1,0.1-2.4,1.2-2.8l6.9-2.9c1.1-0.5,2.4,0.1,2.8,1.2
		c0.5,1.1-0.1,2.4-1.2,2.8l-6.9,2.9C93.8,65.3,93.5,65.4,93.3,65.4"/>
	<path class="st0" d="M42.7,86.7c-0.8,0-1.6-0.5-2-1.3c-0.5-1.1,0.1-2.4,1.2-2.8l7-2.9c1.1-0.5,2.4,0.1,2.8,1.2
		c0.5,1.1-0.1,2.4-1.2,2.8l-7,2.9C43.2,86.6,43,86.7,42.7,86.7"/>
	<path class="st0" d="M80.4,52.6c-0.3,0-0.5-0.1-0.8-0.2c-1.1-0.4-1.6-1.7-1.2-2.8l2.8-6.9c0.5-1.1,1.7-1.6,2.8-1.2
		c1.1,0.4,1.6,1.7,1.2,2.8l-2.8,6.9C82,52.1,81.2,52.6,80.4,52.6"/>
	<path class="st0" d="M59.6,103.4c-0.3,0-0.5-0.1-0.8-0.2c-1.1-0.4-1.6-1.7-1.2-2.8l2.9-7c0.5-1.1,1.7-1.6,2.8-1.2
		c1.1,0.4,1.6,1.7,1.2,2.8l-2.9,7C61.3,102.9,60.5,103.4,59.6,103.4"/>
	<path class="st0" d="M49.4,65.6c-0.3,0-0.5-0.1-0.8-0.2l-6.9-2.8c-1.1-0.4-1.6-1.7-1.2-2.8s1.7-1.6,2.8-1.2l6.9,2.8
		c1.1,0.4,1.6,1.7,1.2,2.8C51.1,65.1,50.3,65.6,49.4,65.6"/>
	<path class="st0" d="M100.2,86.4c-0.3,0-0.5-0.1-0.8-0.2l-7-2.9c-1.1-0.4-1.6-1.7-1.2-2.8c0.4-1.1,1.7-1.6,2.8-1.2l7,2.9
		c1.1,0.4,1.6,1.7,1.2,2.8C101.9,85.9,101.1,86.4,100.2,86.4"/>
</g>
</svg>
