<?xml version="1.0" encoding="utf-8"?>
<!-- Generator: Adobe Illustrator 22.0.1, SVG Export Plug-In . SVG Version: 6.00 Build 0)  -->
<svg version="1.1" id="Layer_1" xmlns="http://www.w3.org/2000/svg" xmlns:xlink="http://www.w3.org/1999/xlink" x="0px" y="0px"
	 viewBox="0 0 144 144" style="enable-background:new 0 0 144 144;" xml:space="preserve">
<style type="text/css">
	.st0{clip-path:url(#SVGID_2_);fill:#F7B148;}
	.st1{clip-path:url(#SVGID_4_);fill:#B7B7B7;}
</style>
<g>
	<defs>
		<rect id="SVGID_1_" width="144" height="144"/>
	</defs>
	<clipPath id="SVGID_2_">
		<use xlink:href="#SVGID_1_"  style="overflow:visible;"/>
	</clipPath>
	<path class="st0" d="M86.2,54.9c6.8,0,12.3,5.5,12.3,12.3S93,79.5,86.2,79.5c-6.8,0-12.3-5.5-12.3-12.3S79.4,54.9,86.2,54.9"/>
	<path class="st0" d="M86.2,100.3c-0.8,0-1.5-0.7-1.5-1.5V84c0-0.8,0.7-1.5,1.5-1.5c0.8,0,1.5,0.7,1.5,1.5v14.8
		C87.7,99.6,87,100.3,86.2,100.3"/>
	<path class="st0" d="M86.2,52c-0.8,0-1.5-0.7-1.5-1.5V35.6c0-0.8,0.7-1.5,1.5-1.5c0.8,0,1.5,0.7,1.5,1.5v14.9
		C87.7,51.3,87,52,86.2,52"/>
	<path class="st0" d="M117.8,68.7H103c-0.8,0-1.5-0.7-1.5-1.5c0-0.8,0.7-1.5,1.5-1.5h14.8c0.8,0,1.5,0.7,1.5,1.5
		C119.3,68,118.6,68.7,117.8,68.7"/>
	<path class="st0" d="M69.4,68.7H54.6c-0.8,0-1.5-0.7-1.5-1.5c0-0.8,0.7-1.5,1.5-1.5h14.9c0.8,0,1.5,0.7,1.5,1.5
		C71,68,70.3,68.7,69.4,68.7"/>
	<path class="st0" d="M98.1,56.8c-0.4,0-0.8-0.1-1.1-0.4c-0.6-0.6-0.6-1.6,0-2.2l10.4-10.4c0.6-0.6,1.6-0.6,2.2,0
		c0.6,0.6,0.6,1.6,0,2.2L99.2,56.4C98.9,56.7,98.5,56.8,98.1,56.8"/>
	<path class="st0" d="M70.6,84.3c-0.4,0-0.8-0.1-1.1-0.4c-0.6-0.6-0.6-1.6,0-2.2l3.8-3.7c0.6-0.6,1.6-0.6,2.2,0
		c0.6,0.6,0.6,1.6,0,2.2l-3.8,3.6C71.4,84.1,71,84.3,70.6,84.3"/>
	<path class="st0" d="M74.3,56.8c-0.4,0-0.8-0.1-1.1-0.4L62.7,45.9c-0.6-0.6-0.6-1.6,0-2.2c0.6-0.6,1.6-0.6,2.2,0l10.4,10.4
		c0.6,0.6,0.6,1.6,0,2.2C75,56.7,74.7,56.8,74.3,56.8"/>
	<path class="st0" d="M108.5,91.1c-0.4,0-0.8-0.1-1.1-0.4L96.9,80.1c-0.6-0.6-0.6-1.6,0-2.2c0.6-0.6,1.6-0.6,2.2,0l10.5,10.5
		c0.6,0.6,0.6,1.6,0,2.2C109.3,90.9,108.9,91.1,108.5,91.1"/>
	<path class="st0" d="M94.7,89.1c-0.6,0-1.2-0.4-1.4-0.9l-2-4.9c-0.3-0.8,0-1.7,0.8-2c0.8-0.3,1.7,0,2,0.8l2,4.9
		c0.3,0.8,0,1.7-0.8,2C95.1,89.1,94.9,89.1,94.7,89.1"/>
	<path class="st0" d="M79.7,53.3c-0.6,0-1.2-0.4-1.4-0.9l-2.1-5c-0.3-0.8,0-1.7,0.8-2c0.8-0.3,1.7,0,2,0.8l2.1,5
		c0.3,0.8,0,1.7-0.8,2C80.1,53.3,79.9,53.3,79.7,53.3"/>
	<path class="st0" d="M101.7,62.2c-0.6,0-1.2-0.4-1.4-0.9c-0.3-0.8,0-1.7,0.8-2l4.9-2c0.8-0.3,1.7,0,2,0.8c0.3,0.8,0,1.7-0.8,2
		l-4.9,2C102.1,62.2,101.9,62.2,101.7,62.2"/>
	<path class="st0" d="M65.8,77.3c-0.6,0-1.2-0.4-1.4-0.9c-0.3-0.8,0-1.7,0.8-2l5-2.1c0.8-0.3,1.7,0,2,0.8c0.3,0.8,0,1.7-0.8,2
		l-5,2.1C66.2,77.3,66,77.3,65.8,77.3"/>
	<path class="st0" d="M92.5,53.1c-0.2,0-0.4,0-0.6-0.1c-0.8-0.3-1.2-1.2-0.8-2l2-4.9c0.3-0.8,1.2-1.2,2-0.8c0.8,0.3,1.2,1.2,0.8,2
		l-2,4.9C93.7,52.8,93.1,53.1,92.5,53.1"/>
	<path class="st0" d="M77.8,89.2c-0.2,0-0.4,0-0.6-0.1c-0.8-0.3-1.2-1.2-0.8-2l2-5c0.3-0.8,1.2-1.2,2-0.8c0.8,0.3,1.2,1.2,0.8,2
		l-2,5C79,88.9,78.4,89.2,77.8,89.2"/>
	<path class="st0" d="M70.6,62.4c-0.2,0-0.4,0-0.6-0.1l-4.9-2c-0.8-0.3-1.2-1.2-0.8-2c0.3-0.8,1.2-1.2,2-0.8l4.9,2
		c0.8,0.3,1.2,1.2,0.8,2C71.8,62,71.2,62.4,70.6,62.4"/>
	<path class="st0" d="M106.7,77.1c-0.2,0-0.4,0-0.6-0.1l-5-2c-0.8-0.3-1.2-1.2-0.8-2c0.3-0.8,1.2-1.2,2-0.8l5,2
		c0.8,0.3,1.2,1.2,0.8,2C107.8,76.7,107.3,77.1,106.7,77.1"/>
</g>
<g>
	<defs>
		<rect id="SVGID_3_" width="144" height="144"/>
	</defs>
	<clipPath id="SVGID_4_">
		<use xlink:href="#SVGID_3_"  style="overflow:visible;"/>
	</clipPath>
	<path class="st1" d="M71.1,110.9H33.2c-5.3,0-9.6-4.3-9.6-9.6c0-3.7,2.2-7.1,5.6-8.7c0.2-0.1,1.5-0.6,1.5-2.2
		c0-9.8,9.3-17.7,20.8-17.7s20.8,8,20.8,17.7c0,0.6,0.3,1.2,0.5,1.4c4.6,0.5,8.1,4.7,8.1,9.5C80.7,106.6,76.4,110.9,71.1,110.9
		 M51.3,74.7c-10.3,0-18.7,7.1-18.7,15.7c0,3.1-2.7,4-2.7,4c-2.6,1.2-4.2,3.9-4.2,6.9c0,4.2,3.4,7.6,7.6,7.6h37.9
		c4.2,0,7.6-3.4,7.6-7.6c0-3.8-2.8-7.1-6.5-7.6c-1.3-0.2-2.2-2.1-2.2-3.3C70.1,81.8,61.7,74.7,51.3,74.7"/>
</g>
</svg>
