<?xml version="1.0" encoding="utf-8"?>
<!-- Generator: Adobe Illustrator 22.0.1, SVG Export Plug-In . SVG Version: 6.00 Build 0)  -->
<svg version="1.1" id="Layer_1" xmlns="http://www.w3.org/2000/svg" xmlns:xlink="http://www.w3.org/1999/xlink" x="0px" y="0px"
	 viewBox="0 0 144 144" style="enable-background:new 0 0 144 144;" xml:space="preserve">
<style type="text/css">
	.st0{clip-path:url(#SVGID_2_);fill:#F7B148;}
	.st1{clip-path:url(#SVGID_4_);fill:#B7B7B7;}
</style>
<g>
	<defs>
		<rect id="SVGID_1_" width="144" height="144"/>
	</defs>
	<clipPath id="SVGID_2_">
		<use xlink:href="#SVGID_1_"  style="overflow:visible;"/>
	</clipPath>
	<path class="st0" d="M73.1,65.1c1.9-4.7,6.5-8,11.9-8c7.1,0,12.8,5.7,12.8,12.8c0,4.2-2,7.9-5.1,10.2l-5.9-2.9l-5.6-0.7l-2.9-1
		l-1.5-4.1L73.1,65.1z"/>
	<path class="st0" d="M85,54c-0.9,0-1.6-0.7-1.6-1.6V36.9c0-0.9,0.7-1.6,1.6-1.6c0.9,0,1.6,0.7,1.6,1.6v15.5
		C86.6,53.3,85.9,54,85,54"/>
	<path class="st0" d="M117.9,71.4h-15.4c-0.9,0-1.6-0.7-1.6-1.6s0.7-1.6,1.6-1.6h15.4c0.9,0,1.6,0.7,1.6,1.6S118.8,71.4,117.9,71.4"
		/>
	<path class="st0" d="M97.4,59c-0.4,0-0.8-0.2-1.1-0.5c-0.6-0.6-0.6-1.6,0-2.3l10.9-10.9c0.6-0.6,1.6-0.6,2.3,0
		c0.6,0.6,0.6,1.6,0,2.3l-10.9,11C98.2,58.9,97.8,59,97.4,59"/>
	<path class="st0" d="M72.6,59c-0.4,0-0.8-0.2-1.1-0.5L60.6,47.7c-0.6-0.6-0.6-1.6,0-2.3c0.6-0.6,1.6-0.6,2.3,0l10.9,10.9
		c0.6,0.6,0.6,1.6,0,2.3C73.4,58.9,73,59,72.6,59"/>
	<path class="st0" d="M78.3,55.4c-0.6,0-1.2-0.4-1.5-1l-2.2-5.2c-0.3-0.8,0-1.7,0.9-2.1c0.8-0.3,1.7,0,2.1,0.9l2.2,5.2
		c0.3,0.8,0,1.7-0.9,2.1C78.7,55.3,78.5,55.4,78.3,55.4"/>
	<path class="st0" d="M101.2,64.6c-0.6,0-1.2-0.4-1.5-1c-0.3-0.8,0-1.7,0.9-2.1l5.1-2.1c0.8-0.3,1.7,0,2.1,0.9
		c0.3,0.8,0,1.7-0.9,2.1l-5.1,2.1C101.6,64.6,101.4,64.6,101.2,64.6"/>
	<path class="st0" d="M91.6,55.2c-0.2,0-0.4,0-0.6-0.1c-0.8-0.3-1.2-1.3-0.9-2.1l2.1-5.1c0.3-0.8,1.3-1.2,2.1-0.9s1.2,1.3,0.9,2.1
		l-2.1,5.1C92.9,54.8,92.3,55.2,91.6,55.2"/>
	<path class="st0" d="M106.4,80.1c-0.2,0-0.4,0-0.6-0.1l-5.2-2.1c-0.8-0.3-1.2-1.3-0.9-2.1c0.3-0.8,1.3-1.2,2.1-0.9L107,77
		c0.8,0.3,1.2,1.3,0.9,2.1C107.6,79.8,107,80.1,106.4,80.1"/>
</g>
<g>
	<defs>
		<rect id="SVGID_3_" width="144" height="144"/>
	</defs>
	<clipPath id="SVGID_4_">
		<use xlink:href="#SVGID_3_"  style="overflow:visible;"/>
	</clipPath>
	<path class="st1" d="M35.2,109.7c-6.1,0-11.1-6-11.1-13.5c0-5.1,2.5-9.9,6.3-12.1c0.3-0.2,1.8-0.8,1.8-3.3
		c0-13.7,10.8-24.8,24-24.8c10.6,0,19.7,7.2,23,17.9c0.2,0.5,2.2,1.6,4.2,1.6c6,0,11.7,3.3,14.7,8.5c0.3,0.5,1.5,1.2,3.7,1.2
		c6.5,0,11.9,5.3,11.9,11.9c0,6.7-5.5,12.5-11.9,12.5l-22.8,0.1H35.2z M56.1,58.4c-11.9,0-21.5,10.1-21.5,22.5c0,4.2-3,5.4-3.1,5.5
		c-2.9,1.7-5,5.7-5,10c0,6.1,4,11,8.8,11l66.5-0.1c5,0,9.4-4.7,9.4-10c0-5.2-4.2-9.4-9.4-9.4c-2.7,0-4.9-0.9-5.8-2.5
		c-2.7-4.6-7.6-7.4-12.8-7.4c-2.8,0-5.9-1.6-6.4-3.3C73.8,65,65.5,58.4,56.1,58.4"/>
</g>
</svg>
