<?xml version="1.0" encoding="utf-8"?>
<!-- Generator: Adobe Illustrator 22.0.1, SVG Export Plug-In . SVG Version: 6.00 Build 0)  -->
<svg version="1.1" id="Layer_1" xmlns="http://www.w3.org/2000/svg" xmlns:xlink="http://www.w3.org/1999/xlink" x="0px" y="0px"
	 viewBox="0 0 144 144" style="enable-background:new 0 0 144 144;" xml:space="preserve">
<style type="text/css">
	.st0{clip-path:url(#SVGID_2_);fill:#424242;}
	.st1{clip-path:url(#SVGID_4_);fill:#28ABEF;}
</style>
<g>
	<defs>
		<rect id="SVGID_1_" width="144" height="144"/>
	</defs>
	<clipPath id="SVGID_2_">
		<use xlink:href="#SVGID_1_"  style="overflow:visible;"/>
	</clipPath>
	<path class="st0" d="M32.6,44.8c0,1.1-0.9,2-2,2c-1.1,0-2-0.9-2-2c0-1.1,0.9-2,2-2C31.7,42.8,32.6,43.7,32.6,44.8"/>
	<path class="st0" d="M65.9,28.8c0,1.1-0.9,2-2,2c-1.1,0-2-0.9-2-2c0-1.1,0.9-2,2-2C65,26.8,65.9,27.7,65.9,28.8"/>
	<path class="st0" d="M33.6,116.9c0,0.8-0.7,1.5-1.5,1.5c-0.8,0-1.5-0.7-1.5-1.5c0-0.8,0.7-1.5,1.5-1.5
		C33,115.4,33.6,116.1,33.6,116.9"/>
	<path class="st0" d="M114.4,95.8c0,0.8-0.7,1.5-1.5,1.5c-0.8,0-1.5-0.7-1.5-1.5c0-0.8,0.7-1.5,1.5-1.5
		C113.7,94.3,114.4,94.9,114.4,95.8"/>
</g>
<g>
	<defs>
		<rect id="SVGID_3_" width="144" height="144"/>
	</defs>
	<clipPath id="SVGID_4_">
		<use xlink:href="#SVGID_3_"  style="overflow:visible;"/>
	</clipPath>
	<path class="st1" d="M97.5,92.7C92,98.9,83.9,102.8,75,102.8c-16.5,0-30-13.4-30-30c0-15,11-27.4,25.4-29.6c0,0-13.8,17.7-3.8,34.7
		C78,97.1,97.5,92.7,97.5,92.7"/>
</g>
</svg>
