<?xml version="1.0" encoding="utf-8"?>
<!-- Generator: Adobe Illustrator 22.0.1, SVG Export Plug-In . SVG Version: 6.00 Build 0)  -->
<svg version="1.1" id="Layer_1" xmlns="http://www.w3.org/2000/svg" xmlns:xlink="http://www.w3.org/1999/xlink" x="0px" y="0px"
	 viewBox="0 0 144 144" style="enable-background:new 0 0 144 144;" xml:space="preserve">
<style type="text/css">
	.st0{clip-path:url(#SVGID_2_);fill:#7A7A7A;}
	.st1{clip-path:url(#SVGID_4_);fill:#7A7A7A;}
</style>
<g>
	<defs>
		<rect id="SVGID_1_" width="144" height="144"/>
	</defs>
	<clipPath id="SVGID_2_">
		<use xlink:href="#SVGID_1_"  style="overflow:visible;"/>
	</clipPath>
	<path class="st0" d="M97,107.2H55.7c-5.9,0-10.7-4.8-10.7-10.7c0-4.1,2.4-7.9,6.1-9.7c0.3-0.1,1.5-0.6,1.5-2.2
		c0-10.8,10.2-19.5,22.8-19.5c12.6,0,22.8,8.8,22.8,19.5c0,0.5,0.3,1.1,0.4,1.3c5.1,0.7,9,5.2,9,10.6
		C107.8,102.4,103,107.2,97,107.2 M75.5,67.7c-11.2,0-20.3,7.6-20.3,17c0,2.8-2,4.2-3.2,4.6c-2.7,1.3-4.5,4.2-4.5,7.3
		c0,4.5,3.7,8.2,8.2,8.2H97c4.5,0,8.2-3.7,8.2-8.2c0-4.1-3-7.6-6.9-8.1c-1.6-0.2-2.5-2.4-2.5-3.8C95.8,75.3,86.7,67.7,75.5,67.7"/>
</g>
<g>
	<defs>
		<polygon id="SVGID_3_" points="19.8,20.7 19.8,122.5 43.6,122.5 48.9,74.4 101.1,75.7 112.5,122.5 121.6,122.5 121.6,20.7 		"/>
	</defs>
	<clipPath id="SVGID_4_">
		<use xlink:href="#SVGID_3_"  style="overflow:visible;"/>
	</clipPath>
	<path class="st1" d="M35.5,92.2c-6.6,0-11.9-6.4-11.9-14.4c0-5.5,2.6-10.6,6.7-12.9c0.3-0.2,1.9-0.9,1.9-3.5
		c0-14.6,11.5-26.6,25.6-26.6c11.2,0,21.1,7.7,24.6,19.2c0.2,0.5,2.3,1.7,4.4,1.7c6.5,0,12.5,3.5,15.8,9.1c0.3,0.5,1.6,1.3,4,1.3
		c7,0,12.7,5.7,12.7,12.7c0,7.2-5.8,13.3-12.7,13.3l-24.4,0.1H35.5z M57.8,37.4c-12.7,0-23,10.8-23,24c0,4.4-3.2,5.8-3.4,5.8
		c-3.2,1.8-5.3,6.1-5.3,10.7c0,6.5,4.2,11.8,9.4,11.8l71-0.1c5.4,0,10.1-5,10.1-10.7c0-5.6-4.5-10.1-10.1-10.1c-2.9,0-5.3-1-6.2-2.6
		c-2.8-4.8-8-7.8-13.6-7.8c-3,0-6.3-1.7-6.9-3.5C76.8,44.4,67.9,37.4,57.8,37.4"/>
</g>
</svg>
