<?xml version="1.0" encoding="utf-8"?>
<!-- Generator: Adobe Illustrator 22.0.1, SVG Export Plug-In . SVG Version: 6.00 Build 0)  -->
<svg version="1.1" id="Layer_1" xmlns="http://www.w3.org/2000/svg" xmlns:xlink="http://www.w3.org/1999/xlink" x="0px" y="0px"
	 viewBox="0 0 144 144" style="enable-background:new 0 0 144 144;" xml:space="preserve">
<style type="text/css">
	.st0{clip-path:url(#SVGID_2_);}
	.st1{opacity:0.25;clip-path:url(#SVGID_4_);}
	.st2{clip-path:url(#SVGID_6_);fill:#28ABEF;}
	.st3{opacity:0.6;clip-path:url(#SVGID_4_);}
	.st4{clip-path:url(#SVGID_8_);fill:#28ABEF;}
	.st5{clip-path:url(#SVGID_4_);fill:#28ABEF;}
	.st6{clip-path:url(#SVGID_4_);fill:#7A7A7A;}
</style>
<g>
	<defs>
		<rect id="SVGID_1_" width="144" height="144"/>
	</defs>
	<clipPath id="SVGID_2_">
		<use xlink:href="#SVGID_1_"  style="overflow:visible;"/>
	</clipPath>
	<g class="st0">
		<defs>
			<rect id="SVGID_3_" width="144" height="144"/>
		</defs>
		<clipPath id="SVGID_4_">
			<use xlink:href="#SVGID_3_"  style="overflow:visible;"/>
		</clipPath>
		<g class="st1">
			<g>
				<defs>
					<rect id="SVGID_5_" x="28.3" y="84.7" width="87.3" height="11.1"/>
				</defs>
				<clipPath id="SVGID_6_">
					<use xlink:href="#SVGID_5_"  style="overflow:visible;"/>
				</clipPath>
				<path class="st2" d="M100.2,95.8c-3.6,0-5.9-2.1-8-4c-2-1.8-3.8-3.4-6.7-3.4c-2,0-2.8,0.9-4.3,2.7c-1.7,2.1-3.9,4.7-8.8,4.7
					c-4.4,0-6.8-2.2-8.8-4.2c-1.8-1.8-3.3-3.2-6.1-3.2c-2.4,0-3.8,1.4-5.4,3.1c-1.9,1.9-4.2,4.3-8.3,4.3c-3.4,0-6-2.3-8.3-4.3
					c-1.8-1.6-3.5-3.1-5.1-3.1c-1,0-1.8-0.8-1.8-1.8c0-1,0.8-1.8,1.8-1.8c3,0,5.3,2,7.6,4c2,1.7,3.8,3.4,5.9,3.4
					c2.6,0,4-1.4,5.7-3.2c1.9-2,4.1-4.2,8.1-4.2c4.4,0,6.7,2.2,8.7,4.2c1.8,1.8,3.3,3.2,6.3,3.2c3.3,0,4.5-1.5,6-3.3
					c1.5-1.8,3.3-4,7.1-4c4.4,0,7.1,2.4,9.2,4.4c1.8,1.7,3.3,3,5.5,3c2.3,0,3.8-1.5,5.6-3.2c2-2,4.3-4.2,8-4.2c1,0,1.8,0.8,1.8,1.8
					c0,1-0.8,1.8-1.8,1.8c-2.2,0-3.7,1.5-5.5,3.2C106.3,93.5,104,95.8,100.2,95.8"/>
			</g>
		</g>
		<g class="st3">
			<g>
				<defs>
					<rect id="SVGID_7_" x="28.3" y="96.7" width="87.3" height="11.1"/>
				</defs>
				<clipPath id="SVGID_8_">
					<use xlink:href="#SVGID_7_"  style="overflow:visible;"/>
				</clipPath>
				<path class="st4" d="M100.2,107.8c-3.6,0-5.9-2.1-8-4c-2-1.8-3.8-3.4-6.7-3.4c-2,0-2.8,0.9-4.3,2.7c-1.7,2.1-3.9,4.7-8.8,4.7
					c-4.4,0-6.8-2.2-8.8-4.2c-1.8-1.8-3.3-3.2-6.1-3.2c-2.4,0-3.8,1.4-5.4,3.1c-1.9,1.9-4.2,4.3-8.3,4.3c-3.4,0-6-2.3-8.3-4.3
					c-1.8-1.6-3.5-3.1-5.1-3.1c-1,0-1.8-0.8-1.8-1.8c0-1,0.8-1.8,1.8-1.8c3,0,5.3,2,7.6,4c2,1.7,3.8,3.4,5.9,3.4
					c2.6,0,4-1.4,5.7-3.2c1.9-2,4.1-4.2,8.1-4.2c4.4,0,6.7,2.2,8.7,4.2c1.8,1.8,3.3,3.2,6.3,3.2c3.3,0,4.5-1.5,6-3.3
					c1.5-1.8,3.3-4,7.1-4c4.4,0,7.1,2.4,9.2,4.4c1.8,1.7,3.3,3,5.5,3c2.3,0,3.8-1.5,5.6-3.2c2-2,4.3-4.2,8-4.2c1,0,1.8,0.8,1.8,1.8
					c0,1-0.8,1.8-1.8,1.8c-2.2,0-3.7,1.5-5.5,3.2C106.3,105.5,104,107.8,100.2,107.8"/>
			</g>
		</g>
		<path class="st5" d="M100.2,119.8c-3.6,0-5.9-2.1-8-4c-2-1.8-3.8-3.4-6.7-3.4c-2,0-2.8,0.9-4.3,2.7c-1.7,2.1-3.9,4.7-8.8,4.7
			c-4.4,0-6.8-2.2-8.8-4.2c-1.8-1.8-3.3-3.2-6.1-3.2c-2.4,0-3.8,1.4-5.4,3.1c-1.9,1.9-4.2,4.3-8.3,4.3c-3.4,0-6-2.3-8.3-4.3
			c-1.8-1.6-3.5-3.1-5.1-3.1c-1,0-1.8-0.8-1.8-1.8c0-1,0.8-1.8,1.8-1.8c3,0,5.3,2,7.6,4c2,1.7,3.8,3.4,5.9,3.4c2.6,0,4-1.4,5.7-3.2
			c1.9-2,4.1-4.2,8.1-4.2c4.4,0,6.7,2.2,8.7,4.2c1.8,1.8,3.3,3.2,6.3,3.2c3.3,0,4.5-1.5,6-3.3c1.5-1.8,3.3-4,7.1-4
			c4.4,0,7.1,2.4,9.2,4.4c1.8,1.7,3.3,3,5.5,3c2.3,0,3.8-1.5,5.6-3.2c2-2,4.3-4.2,8-4.2c1,0,1.8,0.8,1.8,1.8c0,1-0.8,1.8-1.8,1.8
			c-2.2,0-3.7,1.5-5.5,3.2C106.3,117.5,104,119.8,100.2,119.8"/>
		<path class="st6" d="M94.9,71.1H48.9c-6.5,0-11.7-5.3-11.7-11.7c0-4.5,2.6-8.7,6.7-10.6c0.3-0.1,1.8-0.7,1.8-2.6
			c0-11.8,11.3-21.5,25.2-21.5c13.9,0,25.2,9.6,25.2,21.5c0,0.7,0.4,1.5,0.6,1.7c5.5,0.6,9.9,5.6,9.9,11.5
			C106.6,65.9,101.3,71.1,94.9,71.1 M70.9,27.1c-12.5,0-22.7,8.5-22.7,19c0,3.7-3.2,4.8-3.4,4.9c-3.1,1.5-5.2,4.8-5.2,8.3
			c0,5.1,4.2,9.3,9.3,9.3h45.9c5.1,0,9.3-4.2,9.3-9.3c0-4.7-3.4-8.6-7.9-9.2c-1.6-0.2-2.6-2.5-2.6-4C93.6,35.7,83.5,27.1,70.9,27.1"
			/>
	</g>
</g>
</svg>
