<?xml version="1.0" encoding="utf-8"?>
<!-- Generator: Adobe Illustrator 22.0.1, SVG Export Plug-In . SVG Version: 6.00 Build 0)  -->
<svg version="1.1" id="Layer_1" xmlns="http://www.w3.org/2000/svg" xmlns:xlink="http://www.w3.org/1999/xlink" x="0px" y="0px"
	 viewBox="0 0 144 144" style="enable-background:new 0 0 144 144;" xml:space="preserve">
<style type="text/css">
	.st0{clip-path:url(#SVGID_2_);fill:#7A7A7A;}
	.st1{clip-path:url(#SVGID_2_);fill:#28ABEF;}
</style>
<g>
	<defs>
		<rect id="SVGID_1_" width="144" height="144"/>
	</defs>
	<clipPath id="SVGID_2_">
		<use xlink:href="#SVGID_1_"  style="overflow:visible;"/>
	</clipPath>
	<path class="st0" d="M81.9,54.4c-0.3,0-0.6,0-0.9-0.1c-1.3-0.5-2-1.9-1.5-3.2l1.8-4.8c0.5-1.3,1.9-2,3.2-1.5c1.3,0.5,2,1.9,1.5,3.2
		l-1.8,4.8C83.9,53.7,82.9,54.4,81.9,54.4"/>
	<path class="st0" d="M89.7,35c-0.3,0-0.6,0-0.9-0.1c-1.3-0.5-2-1.9-1.5-3.2l1.8-4.8c0.5-1.3,1.9-2,3.2-1.5c1.3,0.5,2,1.9,1.5,3.2
		l-1.8,4.8C91.7,34.3,90.8,35,89.7,35"/>
	<path class="st0" d="M52,49c-0.3,0-0.6,0-0.9-0.1c-1.3-0.5-2-1.9-1.5-3.2l1.8-4.8c0.5-1.3,1.9-2,3.2-1.5c1.3,0.5,2,1.9,1.5,3.2
		l-1.8,4.8C53.9,48.4,53,49,52,49"/>
	<path class="st0" d="M63.4,63.4c-0.3,0-0.6,0-0.9-0.1c-1.3-0.5-2-1.9-1.5-3.2l1.8-4.8c0.5-1.3,1.9-2,3.2-1.5c1.3,0.5,2,1.9,1.5,3.2
		l-1.8,4.8C65.3,62.8,64.4,63.4,63.4,63.4"/>
	<path class="st0" d="M70.6,44.2c-0.3,0-0.6,0-0.9-0.1c-1.3-0.5-2-1.9-1.5-3.2L70,36c0.5-1.3,1.9-2,3.2-1.5c1.3,0.5,2,1.9,1.5,3.2
		L73,42.6C72.6,43.6,71.7,44.2,70.6,44.2"/>
	<path class="st0" d="M98.2,60.7c-0.3,0-0.6,0-0.9-0.1c-1.3-0.5-2-1.9-1.5-3.2l1.8-4.8c0.5-1.3,1.9-2,3.2-1.5c1.3,0.5,2,1.9,1.5,3.2
		l-1.8,4.8C100.2,60,99.3,60.7,98.2,60.7"/>
	<path class="st1" d="M113.3,79.7H29.4c-1.4,0-2.5-1.1-2.5-2.5c0-1.4,1.1-2.5,2.5-2.5h83.9c1.4,0,2.5,1.1,2.5,2.5
		C115.8,78.5,114.7,79.7,113.3,79.7"/>
	<path class="st1" d="M71.4,120.1c-1.4,0-2.5-1.1-2.5-2.5V79c0-1.4,1.1-2.5,2.5-2.5c1.4,0,2.5,1.1,2.5,2.5v38.6
		C73.9,119,72.8,120.1,71.4,120.1"/>
	<path class="st1" d="M58.1,99.4c-1.4,0-2.5-1.1-2.5-2.5V79c0-1.4,1.1-2.5,2.5-2.5c1.4,0,2.5,1.1,2.5,2.5v17.8
		C60.6,98.2,59.4,99.4,58.1,99.4"/>
	<path class="st1" d="M84.7,103c-1.4,0-2.5-1.1-2.5-2.5V79c0-1.4,1.1-2.5,2.5-2.5c1.4,0,2.5,1.1,2.5,2.5v21.5
		C87.2,101.9,86,103,84.7,103"/>
	<path class="st1" d="M98.3,110.3c-1.4,0-2.5-1.1-2.5-2.5V79c0-1.4,1.1-2.5,2.5-2.5c1.4,0,2.5,1.1,2.5,2.5v28.8
		C100.8,109.2,99.6,110.3,98.3,110.3"/>
	<path class="st1" d="M44.1,105.2c-1.4,0-2.5-1.1-2.5-2.5V79c0-1.4,1.1-2.5,2.5-2.5c1.4,0,2.5,1.1,2.5,2.5v23.7
		C46.6,104.1,45.5,105.2,44.1,105.2"/>
	<path class="st1" d="M28.9,78.2c0,0,7.1,3.6,8.7,4.8c1.6,1.2,3,2.6,3.6,4.3c0.6,1.7,2.9,9,2.9,9s2.6-12,6.2-11.9
		c3.6,0.1,7.8,4.5,7.8,7.2s3.8-7.8,6.7-7.8s6.7,6.3,6.7,9.5s3.7-9.6,6.4-9.7c2.6-0.1,6.1,7.3,6.5,9.8c0.4,2.5,4.1-9.8,6.8-9.9
		c2.7-0.1,6.2,8.9,6.7,11.4c0.5,2.5,4.5-10.5,5.8-12c1.3-1.5,6.8-3.5,8-3.7c1.2-0.1,0.9-1.5,0.9-1.5l-80.9-0.4L28.9,78.2z"/>
</g>
</svg>
