<?xml version="1.0" encoding="utf-8"?>
<!-- Generator: Adobe Illustrator 22.0.1, SVG Export Plug-In . SVG Version: 6.00 Build 0)  -->
<svg version="1.1" id="Layer_1" xmlns="http://www.w3.org/2000/svg" xmlns:xlink="http://www.w3.org/1999/xlink" x="0px" y="0px"
	 viewBox="0 0 144 144" style="enable-background:new 0 0 144 144;" xml:space="preserve">
<style type="text/css">
	.st0{clip-path:url(#SVGID_2_);fill:#28ABEF;}
	.st1{clip-path:url(#SVGID_2_);fill:#7A7A7A;}
</style>
<g>
	<defs>
		<rect id="SVGID_1_" width="144" height="144"/>
	</defs>
	<clipPath id="SVGID_2_">
		<use xlink:href="#SVGID_1_"  style="overflow:visible;"/>
	</clipPath>
	<path class="st0" d="M37.5,107.2c-0.3,0-0.6-0.1-0.8-0.2c-1.1-0.5-1.7-1.8-1.2-2.9l3.6-8.6c0.5-1.1,1.8-1.7,2.9-1.2
		c1.1,0.5,1.7,1.8,1.2,2.9l-3.6,8.6C39.2,106.7,38.4,107.2,37.5,107.2"/>
	<path class="st0" d="M45.7,87.4c-0.3,0-0.6-0.1-0.8-0.2c-1.1-0.5-1.7-1.8-1.2-2.9l4.1-9.8c0.5-1.1,1.8-1.7,2.9-1.2
		c1.1,0.5,1.7,1.8,1.2,2.9L47.8,86C47.4,86.9,46.6,87.4,45.7,87.4"/>
	<path class="st0" d="M61.1,107.2c-0.3,0-0.6-0.1-0.8-0.2c-1.1-0.5-1.7-1.8-1.2-2.9l3.6-8.6c0.5-1.1,1.8-1.7,2.9-1.2
		c1.1,0.5,1.7,1.8,1.2,2.9l-3.6,8.6C62.7,106.7,61.9,107.2,61.1,107.2"/>
	<path class="st0" d="M69.3,87.4c-0.3,0-0.6-0.1-0.8-0.2c-1.1-0.5-1.7-1.8-1.2-2.9l4.1-9.8c0.5-1.1,1.8-1.7,2.9-1.2
		c1.1,0.5,1.7,1.8,1.2,2.9L71.4,86C71,86.9,70.2,87.4,69.3,87.4"/>
	<path class="st0" d="M83.4,107.2c-0.3,0-0.6-0.1-0.8-0.2c-1.1-0.5-1.7-1.8-1.2-2.9l3.6-8.6c0.5-1.1,1.8-1.7,2.9-1.2
		c1.1,0.5,1.7,1.8,1.2,2.9l-3.6,8.6C85.1,106.7,84.3,107.2,83.4,107.2"/>
	<path class="st0" d="M91.7,87.4c-0.3,0-0.6-0.1-0.8-0.2c-1.1-0.5-1.7-1.8-1.2-2.9l4.1-9.8c0.5-1.1,1.8-1.7,2.9-1.2
		c1.1,0.5,1.7,1.8,1.2,2.9L93.7,86C93.4,86.9,92.6,87.4,91.7,87.4"/>
	<path class="st0" d="M67.8,118.4c-0.3,0-0.6-0.1-0.8-0.2c-1.1-0.5-1.7-1.8-1.2-2.9l3.6-8.6c0.5-1.1,1.8-1.6,2.9-1.2
		c1.1,0.5,1.7,1.8,1.2,2.9l-3.6,8.6C69.5,117.9,68.7,118.4,67.8,118.4"/>
	<path class="st0" d="M76.1,98.6c-0.3,0-0.6-0.1-0.8-0.2c-1.1-0.5-1.7-1.8-1.2-2.9l4.1-9.8c0.5-1.1,1.8-1.7,2.9-1.2
		c1.1,0.5,1.7,1.8,1.2,2.9l-4.1,9.8C77.7,98,76.9,98.6,76.1,98.6"/>
	<path class="st0" d="M44.8,118.1c-0.3,0-0.6-0.1-0.8-0.2c-1.1-0.5-1.7-1.8-1.2-2.9l3.6-8.6c0.5-1.1,1.8-1.7,2.9-1.2
		c1.1,0.5,1.7,1.8,1.2,2.9l-3.6,8.6C46.5,117.6,45.7,118.1,44.8,118.1"/>
	<path class="st0" d="M53.1,98.3c-0.3,0-0.6-0.1-0.8-0.2c-1.1-0.5-1.7-1.8-1.2-2.9l4.1-9.8c0.5-1.1,1.8-1.7,2.9-1.2
		c1.1,0.5,1.7,1.8,1.2,2.9l-4.1,9.8C54.7,97.8,53.9,98.3,53.1,98.3"/>
	<path class="st1" d="M42,80.3c-0.1,0-0.1,0-0.2,0c-6.8-1-12-7-12-13.9c0-5.4,3.2-10.4,8-12.7c0.4-0.1,2.2-0.9,2.2-3.1
		c0-14.2,13.5-25.8,30.2-25.8s30.2,11.5,30.2,25.8c0,0.8,0.5,1.8,0.8,2c6.6,0.8,11.8,6.8,11.8,13.8c0,7-5,12.8-11.9,13.9
		c-0.8,0.1-1.5-0.4-1.7-1.2c-0.1-0.8,0.4-1.5,1.2-1.7c5.4-0.8,9.4-5.5,9.4-11c0-5.6-4.1-10.3-9.5-11c-1.9-0.2-3.1-3-3.1-4.8
		c0-12.6-12.2-22.8-27.2-22.8c-15,0-27.2,10.2-27.2,22.8c0,4.5-3.9,5.8-4,5.8c-3.7,1.8-6.2,5.7-6.2,10c0,5.5,4.1,10.2,9.5,11
		c0.8,0.1,1.4,0.9,1.2,1.7C43.3,79.7,42.7,80.3,42,80.3"/>
</g>
</svg>
