<?xml version="1.0" encoding="utf-8"?>
<!-- Generator: Adobe Illustrator 22.0.1, SVG Export Plug-In . SVG Version: 6.00 Build 0)  -->
<svg version="1.1" id="Layer_1" xmlns="http://www.w3.org/2000/svg" xmlns:xlink="http://www.w3.org/1999/xlink" x="0px" y="0px"
	 viewBox="0 0 144 144" style="enable-background:new 0 0 144 144;" xml:space="preserve">
<style type="text/css">
	.st0{clip-path:url(#SVGID_2_);fill:#7A7A7A;}
	.st1{clip-path:url(#SVGID_2_);fill:#28ABEF;}
</style>
<g>
	<defs>
		<rect id="SVGID_1_" width="144" height="144"/>
	</defs>
	<clipPath id="SVGID_2_">
		<use xlink:href="#SVGID_1_"  style="overflow:visible;"/>
	</clipPath>
	<path class="st0" d="M94.9,74c-0.3,0-0.5,0-0.8-0.1c-1.2-0.4-1.8-1.7-1.4-2.9l4.8-13.1c0,0,9.7-22.5,10.9-22.1
		c1.2,0.4-6.7,24-6.7,24l-4.6,12.7C96.7,73.4,95.9,74,94.9,74"/>
	<path class="st0" d="M73.2,92c-0.3,0-0.5,0-0.8-0.1c-1.2-0.4-1.8-1.7-1.4-2.9l4.8-13.1c0,0,13.9-34.6,15.1-34.2
		C92,42,79.9,77.8,79.9,77.8l-4.6,12.7C75,91.4,74.1,92,73.2,92"/>
	<path class="st0" d="M63.1,70.9c-0.3,0-0.5,0-0.8-0.1c-1.2-0.4-1.8-1.7-1.4-2.9l4.8-13.1c0,0,13.7-30.2,14.8-29.8
		c1.2,0.4-10.7,31.8-10.7,31.8l-4.6,12.7C64.9,70.3,64.1,70.9,63.1,70.9"/>
	<path class="st0" d="M42.7,79.8c-0.3,0-0.5,0-0.8-0.1c-1.2-0.4-1.8-1.7-1.4-2.9l4.8-13.1c0,0,9.7-22.5,10.9-22.1
		c1.2,0.4-6.7,24-6.7,24l-4.6,12.7C44.5,79.3,43.6,79.8,42.7,79.8"/>
	<rect x="58.8" y="101.8" transform="matrix(0.866 -0.5 0.5 0.866 -45.8901 48.051)" class="st1" width="15.8" height="15.8"/>
	<rect x="85.7" y="82.5" transform="matrix(0.866 -0.5 0.5 0.866 -31.6045 57.1357)" class="st1" width="10.2" height="10.2"/>
	<rect x="53.4" y="80.5" transform="matrix(0.866 -0.5 0.5 0.866 -34.9823 40.7076)" class="st1" width="10.2" height="10.2"/>
	<rect x="33.2" y="89.2" transform="matrix(0.866 -0.5 0.5 0.866 -42.0331 31.7808)" class="st1" width="10.2" height="10.2"/>
</g>
</svg>
