<?xml version="1.0" encoding="utf-8"?>
<!-- Generator: Adobe Illustrator 22.0.1, SVG Export Plug-In . SVG Version: 6.00 Build 0)  -->
<svg version="1.1" id="Layer_1" xmlns="http://www.w3.org/2000/svg" xmlns:xlink="http://www.w3.org/1999/xlink" x="0px" y="0px"
	 viewBox="0 0 144 144" style="enable-background:new 0 0 144 144;" xml:space="preserve">
<style type="text/css">
	.st0{clip-path:url(#SVGID_2_);fill:#F7B148;}
	.st1{clip-path:url(#SVGID_2_);fill:#7A7A7A;}
</style>
<g>
	<defs>
		<rect id="SVGID_1_" width="144" height="144"/>
	</defs>
	<clipPath id="SVGID_2_">
		<use xlink:href="#SVGID_1_"  style="overflow:visible;"/>
	</clipPath>
	<path class="st0" d="M98.6,68.2c0,6.8-5.5,12.3-12.3,12.3C79.5,80.5,74,75,74,68.2c0-6.8,5.5-12.3,12.3-12.3
		C93.1,55.9,98.6,61.4,98.6,68.2"/>
	<path class="st0" d="M86.3,101.3c-0.8,0-1.5-0.7-1.5-1.5V85c0-0.8,0.7-1.5,1.5-1.5c0.8,0,1.5,0.7,1.5,1.5v14.8
		C87.8,100.6,87.1,101.3,86.3,101.3"/>
	<path class="st0" d="M86.3,52.9c-0.8,0-1.5-0.7-1.5-1.5V36.5c0-0.8,0.7-1.5,1.5-1.5c0.8,0,1.5,0.7,1.5,1.5v14.9
		C87.8,52.2,87.1,52.9,86.3,52.9"/>
	<path class="st0" d="M117.9,69.7h-14.8c-0.8,0-1.5-0.7-1.5-1.5c0-0.8,0.7-1.5,1.5-1.5h14.8c0.8,0,1.5,0.7,1.5,1.5
		C119.5,69,118.8,69.7,117.9,69.7"/>
	<path class="st0" d="M69.5,69.7H54.6c-0.8,0-1.5-0.7-1.5-1.5c0-0.8,0.7-1.5,1.5-1.5h14.9c0.8,0,1.5,0.7,1.5,1.5
		C71.1,69,70.4,69.7,69.5,69.7"/>
	<path class="st0" d="M98.2,57.7c-0.4,0-0.8-0.1-1.1-0.4c-0.6-0.6-0.6-1.6,0-2.2l10.5-10.5c0.6-0.6,1.6-0.6,2.2,0
		c0.6,0.6,0.6,1.6,0,2.2L99.3,57.3C99,57.6,98.6,57.7,98.2,57.7"/>
	<path class="st0" d="M69.8,86.1c-0.4,0-0.8-0.1-1.1-0.4c-0.6-0.6-0.6-1.6,0-2.2l4.6-4.6c0.6-0.6,1.6-0.6,2.2,0
		c0.6,0.6,0.6,1.6,0,2.2l-4.6,4.6C70.6,86,70.2,86.1,69.8,86.1"/>
	<path class="st0" d="M74.4,57.7c-0.4,0-0.8-0.1-1.1-0.4L62.8,46.8c-0.6-0.6-0.6-1.6,0-2.2s1.6-0.6,2.2,0l10.5,10.5
		c0.6,0.6,0.6,1.6,0,2.2C75.1,57.6,74.8,57.7,74.4,57.7"/>
	<path class="st0" d="M108.7,92c-0.4,0-0.8-0.2-1.1-0.4L97.1,81.1c-0.6-0.6-0.6-1.6,0-2.2c0.6-0.6,1.6-0.6,2.2,0l10.5,10.5
		c0.6,0.6,0.6,1.6,0,2.2C109.5,91.9,109.1,92,108.7,92"/>
	<path class="st0" d="M94.9,90.1c-0.6,0-1.2-0.4-1.4-0.9l-2.1-4.9c-0.3-0.8,0-1.7,0.8-2c0.8-0.3,1.7,0,2,0.8l2.1,4.9
		c0.3,0.8,0,1.7-0.8,2C95.3,90,95.1,90.1,94.9,90.1"/>
	<path class="st0" d="M79.8,54.2c-0.6,0-1.2-0.4-1.4-0.9l-2.1-5c-0.3-0.8,0-1.7,0.8-2c0.8-0.3,1.7,0,2,0.8l2.1,5
		c0.3,0.8,0,1.7-0.8,2C80.2,54.2,80,54.2,79.8,54.2"/>
	<path class="st0" d="M101.8,63.1c-0.6,0-1.2-0.4-1.4-0.9c-0.3-0.8,0-1.7,0.8-2l4.9-2.1c0.8-0.3,1.7,0,2,0.8c0.3,0.8,0,1.7-0.8,2
		l-4.9,2.1C102.2,63.1,102,63.1,101.8,63.1"/>
	<path class="st0" d="M65.9,78.3c-0.6,0-1.2-0.4-1.4-0.9c-0.3-0.8,0-1.7,0.8-2l5-2.1c0.8-0.3,1.7,0,2,0.8c0.3,0.8,0,1.7-0.8,2
		l-5,2.1C66.3,78.2,66.1,78.3,65.9,78.3"/>
	<path class="st0" d="M92.7,54c-0.2,0-0.4,0-0.6-0.1c-0.8-0.3-1.2-1.2-0.8-2l2-4.9c0.3-0.8,1.2-1.2,2-0.8c0.8,0.3,1.2,1.2,0.8,2
		l-2,4.9C93.8,53.7,93.3,54,92.7,54"/>
	<path class="st0" d="M77.9,90.2c-0.2,0-0.4,0-0.6-0.1c-0.8-0.3-1.2-1.2-0.8-2l2-5c0.3-0.8,1.2-1.2,2-0.8c0.8,0.3,1.2,1.2,0.8,2
		l-2,5C79.1,89.8,78.5,90.2,77.9,90.2"/>
	<path class="st0" d="M70.7,63.3c-0.2,0-0.4,0-0.6-0.1l-4.9-2c-0.8-0.3-1.2-1.2-0.8-2c0.3-0.8,1.2-1.2,2-0.8l4.9,2
		c0.8,0.3,1.2,1.2,0.8,2C71.8,62.9,71.3,63.3,70.7,63.3"/>
	<path class="st0" d="M106.8,78c-0.2,0-0.4,0-0.6-0.1l-5-2c-0.8-0.3-1.2-1.2-0.8-2c0.3-0.8,1.2-1.2,2-0.8l5,2c0.8,0.3,1.2,1.2,0.8,2
		C108,77.7,107.4,78,106.8,78"/>
	<path class="st1" d="M70.9,112.1H33.2c-5.3,0-9.6-4.3-9.6-9.6c0-3.7,2.2-7.1,5.5-8.7c0.2-0.1,1.5-0.6,1.5-2.1
		c0-9.7,9.2-17.6,20.6-17.6c11.4,0,20.6,7.9,20.6,17.6c0,0.6,0.3,1.2,0.5,1.4c4.5,0.5,8.1,4.6,8.1,9.4
		C80.5,107.8,76.2,112.1,70.9,112.1 M51.3,76.1c-10.3,0-18.6,7-18.6,15.6c0,3.1-2.6,4-2.8,4c-2.5,1.2-4.2,3.9-4.2,6.8
		c0,4.2,3.4,7.6,7.6,7.6h37.6c4.2,0,7.6-3.4,7.6-7.6c0-3.8-2.8-7.1-6.5-7.5c-1.3-0.2-2.1-2-2.1-3.3C69.9,83.1,61.5,76.1,51.3,76.1"
		/>
</g>
</svg>
