<?xml version="1.0" encoding="utf-8"?>
<!-- Generator: Adobe Illustrator 22.0.1, SVG Export Plug-In . SVG Version: 6.00 Build 0)  -->
<svg version="1.1" id="Layer_1" xmlns="http://www.w3.org/2000/svg" xmlns:xlink="http://www.w3.org/1999/xlink" x="0px" y="0px"
	 viewBox="0 0 144 144" style="enable-background:new 0 0 144 144;" xml:space="preserve">
<style type="text/css">
	.st0{clip-path:url(#SVGID_2_);fill:#F7B148;}
	.st1{clip-path:url(#SVGID_2_);fill:#7A7A7A;}
</style>
<g>
	<defs>
		<rect id="SVGID_1_" width="144" height="144"/>
	</defs>
	<clipPath id="SVGID_2_">
		<use xlink:href="#SVGID_1_"  style="overflow:visible;"/>
	</clipPath>
	<path class="st0" d="M72.8,65.2C73.8,61,79,56,85.1,56c7.1,0,12.8,5.7,12.8,12.8c0,4.8-2.7,9.1-5.2,10.3l-3.4-2.3l-4.2-0.6l-4-0.5
		l-2.8-1.5l-1.1-3.4l-1.6-3.6L72.8,65.2z"/>
	<path class="st0" d="M85.1,52.9c-0.9,0-1.6-0.7-1.6-1.6V35.8c0-0.9,0.7-1.6,1.6-1.6c0.9,0,1.6,0.7,1.6,1.6v15.5
		C86.7,52.2,86,52.9,85.1,52.9"/>
	<path class="st0" d="M118.1,70.4h-15.4c-0.9,0-1.6-0.7-1.6-1.6c0-0.9,0.7-1.6,1.6-1.6h15.4c0.9,0,1.6,0.7,1.6,1.6
		C119.7,69.6,118.9,70.4,118.1,70.4"/>
	<path class="st0" d="M97.5,57.9c-0.4,0-0.8-0.2-1.1-0.5c-0.6-0.6-0.6-1.6,0-2.3l10.9-10.9c0.6-0.6,1.6-0.6,2.3,0
		c0.6,0.6,0.6,1.6,0,2.3L98.6,57.5C98.3,57.8,97.9,57.9,97.5,57.9"/>
	<path class="st0" d="M72.7,57.9c-0.4,0-0.8-0.2-1.1-0.5L60.6,46.6c-0.6-0.6-0.6-1.6,0-2.3c0.6-0.6,1.6-0.6,2.3,0l10.9,10.9
		c0.6,0.6,0.6,1.6,0,2.3C73.5,57.8,73.1,57.9,72.7,57.9"/>
	<path class="st0" d="M101,86.3c-0.4,0-0.8-0.2-1.1-0.5l-3.6-3.6c-0.6-0.6-0.6-1.6,0-2.3c0.6-0.6,1.6-0.6,2.3,0l3.6,3.5
		c0.6,0.6,0.6,1.6,0,2.3C101.8,86.1,101.4,86.3,101,86.3"/>
	<path class="st0" d="M78.3,54.3c-0.6,0-1.2-0.4-1.5-1l-2.2-5.2c-0.3-0.8,0-1.8,0.9-2.1c0.8-0.3,1.8,0,2.1,0.9l2.2,5.2
		c0.3,0.8,0,1.8-0.9,2.1C78.7,54.2,78.5,54.3,78.3,54.3"/>
	<path class="st0" d="M101.3,63.5c-0.6,0-1.2-0.4-1.5-1c-0.3-0.8,0-1.8,0.9-2.1l5.1-2.1c0.8-0.3,1.8,0,2.1,0.9
		c0.3,0.8,0,1.8-0.9,2.1l-5.1,2.1C101.7,63.5,101.5,63.5,101.3,63.5"/>
	<path class="st0" d="M91.7,54.1c-0.2,0-0.4,0-0.6-0.1c-0.8-0.3-1.2-1.3-0.9-2.1l2.1-5.1c0.3-0.8,1.3-1.2,2.1-0.9
		c0.8,0.3,1.2,1.3,0.9,2.1l-2.1,5.1C92.9,53.7,92.3,54.1,91.7,54.1"/>
	<path class="st0" d="M106.5,79.1c-0.2,0-0.4,0-0.6-0.1l-5.2-2.1c-0.8-0.3-1.2-1.3-0.9-2.1c0.3-0.8,1.3-1.2,2.1-0.9l5.2,2.1
		c0.8,0.3,1.2,1.3,0.9,2.1C107.7,78.7,107.1,79.1,106.5,79.1"/>
	<path class="st1" d="M35.3,108.2c-6.1,0-11.1-6-11.1-13.4c0-5.1,2.5-9.8,6.3-12.1c0.3-0.1,1.8-0.9,1.8-3.3
		c0-13.7,10.7-24.8,23.8-24.8c10.5,0,19.7,7.2,22.9,17.9c0.2,0.4,2.1,1.6,4.1,1.6c6,0,11.7,3.3,14.7,8.5c0.3,0.5,1.5,1.3,3.7,1.3
		c6.5,0,11.8,5.3,11.8,11.8c0,6.7-5.4,12.4-11.8,12.4l-22.8,0.1H35.3z M56.1,57.1c-11.8,0-21.5,10-21.5,22.4c0,4.1-3,5.4-3.1,5.4
		c-2.9,1.7-4.9,5.7-4.9,9.9c0,6.1,3.9,11,8.7,11l66.2-0.1c5,0,9.4-4.7,9.4-10c0-5.2-4.2-9.4-9.4-9.4c-2.7,0-4.9-0.9-5.8-2.4
		c-2.6-4.5-7.4-7.3-12.6-7.3c-2.8,0-5.9-1.6-6.4-3.3C73.8,63.6,65.5,57.1,56.1,57.1"/>
</g>
</svg>
