<?xml version="1.0" encoding="utf-8"?>
<!-- Generator: Adobe Illustrator 22.0.1, SVG Export Plug-In . SVG Version: 6.00 Build 0)  -->
<svg version="1.1" id="Layer_1" xmlns="http://www.w3.org/2000/svg" xmlns:xlink="http://www.w3.org/1999/xlink" x="0px" y="0px"
	 viewBox="0 0 144 144" style="enable-background:new 0 0 144 144;" xml:space="preserve">
<style type="text/css">
	.st0{clip-path:url(#SVGID_2_);fill:#424242;}
	.st1{clip-path:url(#SVGID_4_);fill:#28ABEF;}
	.st2{clip-path:url(#SVGID_4_);fill:#7A7A7A;}
</style>
<g>
	<defs>
		<rect id="SVGID_1_" width="144" height="144"/>
	</defs>
	<clipPath id="SVGID_2_">
		<use xlink:href="#SVGID_1_"  style="overflow:visible;"/>
	</clipPath>
	<path class="st0" d="M32.6,44.8c0,1.1-0.9,2-2,2c-1.1,0-2-0.9-2-2c0-1.1,0.9-2,2-2C31.7,42.8,32.6,43.7,32.6,44.8"/>
	<path class="st0" d="M65.9,28.8c0,1.1-0.9,2-2,2c-1.1,0-2-0.9-2-2c0-1.1,0.9-2,2-2C65,26.8,65.9,27.7,65.9,28.8"/>
	<path class="st0" d="M33.6,116.9c0,0.8-0.7,1.5-1.5,1.5c-0.8,0-1.5-0.7-1.5-1.5c0-0.8,0.7-1.5,1.5-1.5
		C33,115.4,33.6,116.1,33.6,116.9"/>
	<path class="st0" d="M114.4,95.8c0,0.8-0.7,1.5-1.5,1.5c-0.8,0-1.5-0.7-1.5-1.5c0-0.8,0.7-1.5,1.5-1.5
		C113.7,94.3,114.4,94.9,114.4,95.8"/>
</g>
<g>
	<defs>
		<rect id="SVGID_3_" width="144" height="144"/>
	</defs>
	<clipPath id="SVGID_4_">
		<use xlink:href="#SVGID_3_"  style="overflow:visible;"/>
	</clipPath>
	<path class="st1" d="M119.2,72c-4,4.5-9.9,7.4-16.4,7.4c-12.1,0-21.8-9.8-21.8-21.8c0-10.9,8-20,18.6-21.6c0,0-10.1,12.9-2.8,25.3
		C105,75.2,119.2,72,119.2,72"/>
	<path class="st2" d="M35.5,106.1c-6.1,0-11.1-6-11.1-13.4c0-5.1,2.5-9.9,6.3-12.1c0.3-0.1,1.8-0.9,1.8-3.3
		c0-13.7,10.7-24.8,23.8-24.8c10.5,0,19.7,7.2,22.9,17.9c0.2,0.4,2.1,1.6,4.1,1.6c6,0,11.7,3.3,14.7,8.5c0.3,0.5,1.5,1.3,3.7,1.3
		c6.5,0,11.8,5.3,11.8,11.8c0,6.7-5.4,12.4-11.8,12.4l-22.8,0.1H35.5z M56.3,55c-11.8,0-21.5,10-21.5,22.4c0,4.1-3,5.4-3.1,5.4
		c-2.9,1.7-4.9,5.7-4.9,9.9c0,6.1,3.9,11,8.7,11l66.2-0.1c5,0,9.4-4.7,9.4-10c0-5.2-4.2-9.4-9.4-9.4c-2.7,0-4.9-0.9-5.8-2.4
		c-2.6-4.5-7.4-7.3-12.6-7.3c-2.8,0-5.9-1.6-6.4-3.3C74,61.5,65.7,55,56.3,55"/>
</g>
</svg>
