<?xml version="1.0" encoding="utf-8"?>
<!-- Generator: Adobe Illustrator 22.0.1, SVG Export Plug-In . SVG Version: 6.00 Build 0)  -->
<svg version="1.1" id="Layer_1" xmlns="http://www.w3.org/2000/svg" xmlns:xlink="http://www.w3.org/1999/xlink" x="0px" y="0px"
	 viewBox="0 0 144 144" style="enable-background:new 0 0 144 144;" xml:space="preserve">
<style type="text/css">
	.st0{clip-path:url(#SVGID_2_);fill:#424242;}
	.st1{clip-path:url(#SVGID_4_);fill:#28ABEF;}
	.st2{clip-path:url(#SVGID_4_);fill:#7A7A7A;}
</style>
<g>
	<defs>
		<rect id="SVGID_1_" width="144" height="144"/>
	</defs>
	<clipPath id="SVGID_2_">
		<use xlink:href="#SVGID_1_"  style="overflow:visible;"/>
	</clipPath>
	<path class="st0" d="M32.6,44.8c0,1.1-0.9,2-2,2c-1.1,0-2-0.9-2-2c0-1.1,0.9-2,2-2C31.7,42.8,32.6,43.7,32.6,44.8"/>
	<path class="st0" d="M65.9,28.8c0,1.1-0.9,2-2,2c-1.1,0-2-0.9-2-2c0-1.1,0.9-2,2-2C65,26.8,65.9,27.7,65.9,28.8"/>
	<path class="st0" d="M33.6,116.9c0,0.8-0.7,1.5-1.5,1.5c-0.8,0-1.5-0.7-1.5-1.5c0-0.8,0.7-1.5,1.5-1.5
		C33,115.4,33.6,116.1,33.6,116.9"/>
	<path class="st0" d="M114.4,95.8c0,0.8-0.7,1.5-1.5,1.5c-0.8,0-1.5-0.7-1.5-1.5c0-0.8,0.7-1.5,1.5-1.5
		C113.7,94.3,114.4,94.9,114.4,95.8"/>
</g>
<g>
	<defs>
		<rect id="SVGID_3_" width="144" height="144"/>
	</defs>
	<clipPath id="SVGID_4_">
		<use xlink:href="#SVGID_3_"  style="overflow:visible;"/>
	</clipPath>
	<path class="st1" d="M118.9,75.3c-4.4,5-10.8,8.1-18,8.1c-13.2,0-24-10.7-24-24c0-12,8.8-22,20.4-23.7c0,0-11.1,14.2-3.1,27.7
		C103.3,78.8,118.9,75.3,118.9,75.3"/>
	<path class="st2" d="M72.5,110.3H34.9c-5.3,0-9.6-4.3-9.6-9.6c0-3.7,2.2-7.1,5.5-8.7c0.2-0.1,1.5-0.6,1.5-2.1
		c0-9.7,9.2-17.6,20.6-17.6c11.4,0,20.6,7.9,20.6,17.6c0,0.6,0.3,1.2,0.5,1.4c4.5,0.5,8.1,4.6,8.1,9.4
		C82.1,106,77.8,110.3,72.5,110.3 M52.9,74.3c-10.3,0-18.6,7-18.6,15.6c0,3.1-2.6,4-2.8,4c-2.5,1.2-4.2,3.9-4.2,6.8
		c0,4.2,3.4,7.6,7.6,7.6h37.6c4.2,0,7.6-3.4,7.6-7.6c0-3.8-2.8-7.1-6.5-7.5c-1.3-0.2-2.1-2-2.1-3.3C71.5,81.3,63.2,74.3,52.9,74.3"
		/>
</g>
</svg>
