<?xml version="1.0" encoding="utf-8"?>
<!-- Generator: Adobe Illustrator 22.0.1, SVG Export Plug-In . SVG Version: 6.00 Build 0)  -->
<svg version="1.1" id="Layer_1" xmlns="http://www.w3.org/2000/svg" xmlns:xlink="http://www.w3.org/1999/xlink" x="0px" y="0px"
	 viewBox="0 0 144 144" style="enable-background:new 0 0 144 144;" xml:space="preserve">
<style type="text/css">
	.st0{clip-path:url(#SVGID_2_);}
	.st1{clip-path:url(#SVGID_4_);fill:#28ABEF;}
	.st2{opacity:0.75;clip-path:url(#SVGID_4_);}
	.st3{clip-path:url(#SVGID_6_);fill:#7A7A7A;}
	.st4{clip-path:url(#SVGID_8_);fill:#7A7A7A;}
	.st5{clip-path:url(#SVGID_10_);fill:#7A7A7A;}
	.st6{clip-path:url(#SVGID_12_);fill:#7A7A7A;}
	.st7{clip-path:url(#SVGID_4_);fill:#7A7A7A;}
</style>
<g>
	<defs>
		<rect id="SVGID_1_" width="144" height="144"/>
	</defs>
	<clipPath id="SVGID_2_">
		<use xlink:href="#SVGID_1_"  style="overflow:visible;"/>
	</clipPath>
	<g class="st0">
		<defs>
			<rect id="SVGID_3_" width="144" height="144"/>
		</defs>
		<clipPath id="SVGID_4_">
			<use xlink:href="#SVGID_3_"  style="overflow:visible;"/>
		</clipPath>
		<path class="st1" d="M40.8,109.9c-0.2,0-0.5,0-0.7-0.1c-1.1-0.4-1.7-1.7-1.3-2.8l1.9-5.1c0.4-1.1,1.7-1.7,2.8-1.3
			c1.1,0.4,1.7,1.7,1.3,2.8l-1.9,5.1C42.6,109.3,41.7,109.9,40.8,109.9"/>
		<g class="st2">
			<g>
				<defs>
					<rect id="SVGID_5_" x="45" y="75.7" width="8" height="17.3"/>
				</defs>
				<clipPath id="SVGID_6_">
					<use xlink:href="#SVGID_5_"  style="overflow:visible;"/>
				</clipPath>
				<path class="st3" d="M47.2,93c-0.2,0-0.5,0-0.7-0.1c-1.1-0.4-1.7-1.7-1.3-2.8l2.5-7c0,0,3.9-7.8,5-7.4c1.1,0.4-0.9,9-0.9,9
					l-2.5,6.9C48.9,92.5,48.1,93,47.2,93"/>
			</g>
		</g>
		<path class="st1" d="M57.4,103.1c-0.2,0-0.5,0-0.7-0.1c-1.1-0.4-1.7-1.7-1.3-2.8l1.9-5.1c0.4-1.1,1.7-1.7,2.8-1.3
			c1.1,0.4,1.7,1.7,1.3,2.8l-1.9,5.1C59.1,102.5,58.3,103.1,57.4,103.1"/>
		<g class="st2">
			<g>
				<defs>
					<rect id="SVGID_7_" x="60.9" y="75.3" width="6.2" height="11.7"/>
				</defs>
				<clipPath id="SVGID_8_">
					<use xlink:href="#SVGID_7_"  style="overflow:visible;"/>
				</clipPath>
				<path class="st4" d="M63.1,86.9c-0.2,0-0.5,0-0.7-0.1c-1.1-0.4-1.7-1.7-1.3-2.8l1.5-4c0,0,2.9-5.1,4-4.7
					c1.1,0.4,0.2,5.8,0.2,5.8l-1.6,4.4C64.9,86.4,64,86.9,63.1,86.9"/>
			</g>
		</g>
		<path class="st1" d="M66.6,118.9c-0.2,0-0.5,0-0.7-0.1c-1.1-0.4-1.7-1.7-1.3-2.8l1.9-5.2c0.4-1.1,1.7-1.7,2.8-1.3
			c1.1,0.4,1.7,1.7,1.3,2.8l-1.9,5.2C68.3,118.3,67.5,118.9,66.6,118.9"/>
		<g class="st2">
			<g>
				<defs>
					<rect id="SVGID_9_" x="69.1" y="74.9" width="11.7" height="28.4"/>
				</defs>
				<clipPath id="SVGID_10_">
					<use xlink:href="#SVGID_9_"  style="overflow:visible;"/>
				</clipPath>
				<path class="st5" d="M71.3,103.3c-0.2,0-0.5,0-0.7-0.1c-1.1-0.4-1.7-1.7-1.3-2.8l4.5-12.6c0,0,5.7-13.2,6.9-12.8
					c1.1,0.4-2.8,14.4-2.8,14.4l-4.5,12.6C73,102.7,72.2,103.3,71.3,103.3"/>
			</g>
		</g>
		<path class="st1" d="M82.1,111.8c-0.2,0-0.5,0-0.7-0.1c-1.1-0.4-1.7-1.7-1.3-2.8l1.9-5.1c0.4-1.1,1.7-1.7,2.8-1.3
			c1.1,0.4,1.7,1.7,1.3,2.8l-1.9,5.1C83.8,111.3,83,111.8,82.1,111.8"/>
		<g class="st2">
			<g>
				<defs>
					<rect id="SVGID_11_" x="85.9" y="74.8" width="8.6" height="19.9"/>
				</defs>
				<clipPath id="SVGID_12_">
					<use xlink:href="#SVGID_11_"  style="overflow:visible;"/>
				</clipPath>
				<path class="st6" d="M88,94.7c-0.2,0-0.5,0-0.7-0.1c-1.1-0.4-1.7-1.6-1.4-2.8l2.7-7.8c0,0,4.3-9.5,5.4-9.1
					c1.1,0.4-1.3,10.4-1.3,10.4l-2.7,8C89.8,94.1,88.9,94.7,88,94.7"/>
			</g>
		</g>
		<path class="st7" d="M43.2,79.8c-0.1,0-0.1,0-0.2,0c-6.8-1-11.9-6.9-11.9-13.8c0-5.4,3.1-10.3,8-12.6c0.4-0.1,2.2-0.8,2.2-3.1
			c0-14.1,13.4-25.5,29.9-25.5c16.5,0,29.9,11.5,29.9,25.5c0,0.8,0.5,1.8,0.8,2c6.6,0.8,11.7,6.7,11.7,13.7
			c0,6.9-4.9,12.7-11.8,13.8c-0.8,0.1-1.5-0.4-1.7-1.2c-0.1-0.8,0.4-1.5,1.2-1.7c5.4-0.8,9.3-5.4,9.3-10.9c0-5.6-4-10.2-9.4-10.9
			c-1.9-0.2-3.1-3-3.1-4.8c0-12.5-12.1-22.6-27-22.6s-27,10.1-27,22.6c0,4.4-3.8,5.7-4,5.8c-3.7,1.7-6.1,5.7-6.1,9.9
			c0,5.4,4,10.1,9.4,10.9c0.8,0.1,1.3,0.9,1.2,1.6C44.5,79.3,43.9,79.8,43.2,79.8"/>
	</g>
</g>
</svg>
